<?xml version="1.0" encoding="utf-8"?>
<!-- Generator: Adobe Illustrator 24.1.2, SVG Export Plug-In . SVG Version: 6.00 Build 0)  -->

	<svg version="1.1" id="Layer_1" xmlns="http://www.w3.org/2000/svg" xmlns:xlink="http://www.w3.org/1999/xlink" x="0px" y="0px"
	width="3000px" height="3000px" viewBox="0 0 3000 3000" style="enable-background:new 0 0 3000 3000;" xml:space="preserve">
	<style type="text/css">
		.st0{clip-path:url(#SVGID_2_);fill:#141414;}
	</style>
	<g>
		<g>
			<defs>
				<rect id="SVGID_1_" y="801.72" width="3000" height="1396.56"/>
			</defs>
			<clipPath id="SVGID_2_">
				<use xlink:href="#SVGID_1_"  style="overflow:visible;"/>
			</clipPath>
			<path class="st0" d="M79.3,1632.3L79.3,1632.3c4.64,4.65,10.25,7.48,16.83,8.52c6.45,0.9,12.89,1.36,19.34,1.36l0,0
				c64.99-9.29,126.31-23.68,183.95-43.16c57.51-19.62,116.44-38.71,176.79-57.3l0,0c4.64-4.64,9.74-6,15.28-4.06
				c5.67,1.81,12.64,0.39,20.89-4.26l0,0c57.64-13.03,116.83-29.03,177.56-48c60.86-19.1,122.89-35.16,186.07-48.2l0,0
				c21.28-8.26,46.29-15.42,75.05-21.48c28.88-6.07,56.74-13.29,83.56-21.68l0,0c4.64-4.65,8.64-9.29,11.99-13.94
				c3.22-4.65,4.84-12.07,4.84-22.26l0,0c-4.64-2.84-9.99-4-16.05-3.48c-6.06,0.52-12.12,1.42-18.18,2.71
				c-5.93,1.42-11.48,2.39-16.64,2.9c-5.16,0.39-8.64-0.32-10.44-2.13l0,0c-4.64,4.65-6.51,9.03-5.61,13.16
				c0.9,4.26-3.29,6.39-12.57,6.39l0,0c0-5.55,1.42-7.42,4.25-5.61c2.84,1.81,4.26-0.06,4.26-5.61l0,0c0-4.65-1.68-5.81-5.03-3.48
				c-3.22,2.32-7.16,3.48-11.8,3.48l0,0l-2.71,5.61c-1.93,3.74-1.03,5.61,2.71,5.61l0,0c-3.74,0.9-6.96,1.81-9.67,2.71l0,0
				c-6.58,1.94-9.86,1.03-9.86-2.71l0,0c-12.89,4.65-27.47,8.32-43.71,11.03c-16.25,2.84-30.88,1.94-43.91-2.71l0,0
				c0-1.81,0-2.52,0-2.13c0,0.52-0.26,1.23-0.77,2.13c-0.39,0.9-1.29,1.61-2.71,2.13c-1.42,0.39-3.03-0.32-4.84-2.13l0,0
				c-23.21,4.64-45.52,7.23-66.92,7.74c-21.41,0.39-42.75,0.58-64.02,0.58l0,0c-23.21-4.65-49-7.87-77.37-9.68
				c-28.24-1.94-53.51-8-75.82-18.19l0,0c39.85-8.39,82.08-16.07,126.69-23.03c44.62-6.97,89.88-12.97,135.78-18
				c45.91-5.16,91.62-9.81,137.14-13.94c45.52-4.26,89.17-8.71,130.95-13.36l0,0c4.64,0,7.86-3.23,9.67-9.68
				c1.93-6.45,8-9.68,18.18-9.68l0,0c0.9,1.81,2.32,3.61,4.26,5.42l0,0c3.61,5.68,5.42,10.32,5.42,13.94l0,0
				c104.96-13.94,207.35-24.39,307.16-31.36c99.81-6.97,203.55-14.13,311.22-21.48l0,0c-36.23,13.03-73.82,20.71-112.77,23.03
				c-38.94,2.32-78.4,5.81-118.38,10.45l0,0c-10.19,0-19.47,3.23-27.85,9.68c-8.38,6.45-19.99,9.68-34.82,9.68l0,0l-8.32-11.03
				c-13.02,5.55-24.89,9.74-35.59,12.58c-10.7,2.71-22.5,4.07-35.4,4.07l0,0h-19.54h-59.96c-3.74,0-10.44,2.13-20.12,6.39
				c-9.8,4.13-17.02,8.52-21.66,13.16l0,0c-5.54,0-9.03-1.42-10.44-4.26c-1.42-2.71-4.45-4.06-9.09-4.06l0,0
				c-1.81,1.81-3.61,3.16-5.42,4.06l0,0c-2.84,2.84-6.58,4.26-11.22,4.26l0,0h-8.32c-6.58,0-15.15,1.42-25.72,4.26
				c-10.7,2.71-20.25,4.06-28.63,4.06l0,0h-8.32c-8.38,0-15.15,3.48-20.31,10.45c-5.03,6.97-9.87,15.1-14.51,24.39l0,0
				c1.81,2.84,5.29,4,10.44,3.48c5.03-0.39,10.57-1.55,16.63-3.48c6.06-1.81,11.86-3.68,17.41-5.61c5.54-1.81,10.64-2.71,15.28-2.71
				l0,0c-8.25,10.19-18.44,16.26-30.56,18.2c-12.12,1.81-25.6,5.03-40.42,9.68l0,0c-4.64,4.64-8.12,10.19-10.44,16.65
				c-2.32,6.58-4.84,13.81-7.54,21.68c-2.84,7.87-6.12,15.29-9.86,22.26c-3.74,6.97-8.83,12.32-15.28,16.07l0,0
				c-1.81,11.1-5.74,21.29-11.8,30.58c-6.06,9.29-12.31,18.13-18.76,26.52c-6.58,8.39-12.89,16.52-18.96,24.39
				c-5.93,7.87-9.86,16.45-11.8,25.74l0,0c-4.64,0-5.8-0.19-3.48-0.58c2.32-0.52,3.48-3.1,3.48-7.74l0,0
				c-4.64,1.94-7.67,4.97-9.09,9.1c-1.29,4.13-2.64,8.06-4.06,11.81c-1.42,3.74-2.84,7.03-4.25,9.87c-1.42,2.71-4.45,4.06-9.09,4.06
				l0,0c-4.64,3.74-5.8,4.9-3.48,3.48c2.32-1.42,3.48-0.26,3.48,3.48l0,0c-4.64,4.65-7.42,7.42-8.32,8.32
				c-0.9,1.03-3.67,1.55-8.32,1.55l0,0c-5.54,10.19-10.19,19.49-13.93,27.87c-3.74,8.26-8.38,16.58-13.93,24.97l0,0
				c-3.74,0-4.64-0.9-2.71-2.71l0,0c0.9-0.9,1.81-2.32,2.71-4.26l0,0c-4.64,0-8.57,1.61-11.8,4.84c-3.22,3.35-4.84,7.36-4.84,12l0,0
				v8.32c-4.64-4.65-8.38-5.1-11.22-1.36c-2.84,3.61-2.39,10.58,1.35,20.9l0,0c-3.74-5.68-6.25-8.52-7.54-8.52
				c-1.42,0-5.42,2.84-11.99,8.52l0,0H894c-27.85,27.87-45.97,60.39-54.35,97.56l0,0h-17.99c4.64,0,7.16,0.19,7.54,0.58
				c0.52,0.52,0.77,2.65,0.77,6.39l0,0c-7.48,6.45-13.02,13.87-16.63,22.26c-3.74,8.39-7.22,17.23-10.45,26.52
				c-3.35,9.29-6.83,18.07-10.44,26.32c-3.74,8.39-8.9,15.87-15.47,22.45l0,0c-4.64-9.29-3.93-19.29,2.13-30
				c6.06-10.71,11.86-18.84,17.41-24.39l0,0c0-23.23,5.61-43.23,16.83-60.01l0,0c8.25-18.58,16.83-36.45,25.73-53.62
				c8.77-17.16,18.25-35.03,28.43-53.62l0,0c21.41-49.29,44.87-96.01,70.41-140.14c25.53-44.13,51.32-88.46,77.37-132.98l0,0
				c-17.67,9.29-38.1,17.87-61.32,25.74c-23.21,7.87-43.2,14.58-59.96,20.13l0,0c-11.09,6.58-22.69,11.68-34.82,15.29
				c-11.99,3.74-23.79,7.48-35.4,11.23c-11.61,3.74-22.76,8.13-33.46,13.16c-10.7,5.16-20.7,11.94-29.98,20.32l0,0h-18.18
				c-17.54,11.1-36.56,19.94-57.06,26.52c-20.37,6.45-41.01,12-61.89,16.65c-20.89,4.65-41.59,9.74-62.09,15.29
				c-20.37,5.55-39.39,12.52-57.06,20.9l0,0c8.38,3.74,17.92,3.03,28.63-2.13c10.7-5.03,18.38-7.55,23.02-7.55l0,0
				c-4.64,8.39-12.31,13.74-23.02,16.07s-20.25,5.81-28.63,10.45l0,0h-8.32c-11.09,7.36-23.6,13.16-37.52,17.42
				c-13.93,4.13-28.37,8.26-43.33,12.39c-14.83,4.26-29.92,8.71-45.26,13.36c-15.22,4.65-29.79,11.16-43.71,19.55l0,0
				c-16.76,0-32.37,3.23-46.81,9.68c-14.31,6.45-27.98,12.52-41.01,18.2l0,0c-4.64,0-9.54,0.9-14.7,2.71
				c-5.03,1.81-9.86,3.23-14.51,4.26c-4.64,0.9-9.28,1.1-13.93,0.58c-4.64-0.39-8.38-2.9-11.22-7.55l0,0
				c-1.81,1.81-3.67,3.16-5.61,4.06c-1.81,0.9-3.61,1.87-5.42,2.9l0,0c-1.93,0.9-3.8,1.35-5.61,1.35l0,0
				c-21.41,0-38.36-0.71-50.87-2.13c-12.51-1.42-24.82-7.23-36.94-17.42l0,0c-6.45-8.39-13.86-16.07-22.24-23.03
				c-8.38-6.97-16.5-14.39-24.37-22.26c-7.87-7.87-14.83-17.16-20.89-27.87c-6.06-10.71-9.99-23.94-11.8-39.68l0,0
				c4.64-4.65,7.16-10.9,7.54-18.78c0.52-8,0.77-14.32,0.77-18.97l0,0c8.38-29.68,19.73-57.04,34.04-82.07
				c14.44-25.16,33.27-44.26,56.48-57.29l0,0c13.02-22.2,29.01-42.39,47.97-60.59c19.08-18.07,37.91-36.39,56.48-54.97l0,0
				c44.62-40,89.88-77.62,135.78-112.85c45.91-35.36,94.39-68.84,145.45-100.46l0,0c50.16-25.03,99.61-51.49,148.36-79.36
				s99.61-50.65,152.61-68.33l0,0c54.67-26.97,110.38-50.2,167.12-69.68c56.61-19.49,116.44-37.61,179.5-54.39l0,0
				c3.74,3.74,6.58,7.48,8.51,11.23c1.81,3.74,7.35,5.61,16.64,5.61l0,0c3.74,15.74,9.28,30.32,16.63,43.75
				c7.48,13.55,15.15,26.32,23.02,38.33c7.87,12.13,15.28,23.74,22.24,34.84c6.96,11.23,12.77,21.94,17.41,32.13l0,0
				c0,4.65-1.16,9.03-3.48,13.16c-2.32,4.26-1.16,8.71,3.48,13.36l0,0c-4.64-3.74-7.61-2.84-8.9,2.71c-1.42,5.55-4,8.32-7.74,8.32
				l0,0c-10.19,13.03-19.92,24.45-29.21,34.26c-9.28,9.68-20.44,21.03-33.46,34.07l0,0c-4.64-4.64-4.38-8.84,0.77-12.58
				c5.03-3.61,7.54-7.74,7.54-12.39l0,0c-16.64,12.9-32.17,27.74-46.61,44.52c-14.44,16.78-28.11,33.94-41.01,51.49l0,0v27.87
				c-13.03,0-22.31-4.84-27.85-14.52c-5.67-9.81-10.83-17.03-15.47-21.68l0,0c-10.19-4.65-16.18-9.03-17.99-13.16
				c-1.93-4.26-5.22-8.71-9.86-13.35l0,0c0-8.26-1.35-15.23-4.06-20.91c-2.84-5.55-4.25-13.42-4.25-23.61l0,0
				c18.57-21.42,37.85-41.87,57.83-61.36c19.99-19.49,39.26-39.94,57.83-61.36l0,0c0-5.55-4.9-8.32-14.7-8.32
				c-9.67,0-16.83,2.77-21.47,8.32l0,0c-11.22-2.71-21.21-3.35-29.98-1.94c-8.9,1.29-17.99,3.81-27.27,7.55
				c-9.28,3.74-18.31,7.48-27.08,11.23c-8.77,3.74-18.76,6.52-29.98,8.32l0,0c0-3.74,1.42-6.52,4.25-8.32
				c2.71-1.94,5.93-3.36,9.67-4.26c3.74-0.9,7.67-2.06,11.8-3.48c4.25-1.42,7.29-4.45,9.09-9.1l0,0c-4.64,0-10.9,2.58-18.76,7.74
				c-7.87,5.16-15.99,5.42-24.37,0.77l0,0c-26.95,8.26-53.39,17.03-79.3,26.32c-26.05,9.29-50.68,20.45-73.89,33.49l0,0
				c-0.9,0-1.35-0.45-1.35-1.35l0,0c-0.9,0-1.35-0.26-1.35-0.77c0-0.39-0.97,0.32-2.9,2.13l0,0
				c-81.62,37.16-157.51,75.94-227.66,116.33c-70.15,40.52-138.62,84.91-205.42,133.17l0,0c-4.64,9.29-12.31,15.36-23.02,18.19
				c-10.7,2.71-18.38,9.16-23.02,19.36l0,0c0,2.84-0.19,3.81-0.58,2.9c-0.52-0.9-3.09,0-7.74,2.71l0,0
				c-35.2,26.97-68.86,56-100.97,87.1c-31.98,31.1-62.86,64.33-92.65,99.69l0,0c1.03,0,2.45,0.45,4.26,1.35l0,0
				c2.84,2.84,4.25,5.16,4.25,6.97l0,0c-6.58-1.81-11.48-1.55-14.7,0.77s-6,5.1-8.32,8.32c-2.32,3.23-4.45,6-6.38,8.32
				c-1.81,2.32-4.13,2.58-6.96,0.78l0,0c-4.64,13.03-8.77,24.39-12.38,34.07c-3.74,9.81-5.61,19.36-5.61,28.65l0,0
				c4.64,0,7.67-5.1,9.09-15.29c1.29-10.32,4.26-17.81,8.9-22.45l0,0c5.67,0,11.73-4.64,18.18-13.94c6.45-9.29,9.67-16.26,9.67-20.91
				l0,0c16.76-18.58,32.11-34.33,46.04-47.23c13.93-13.03,27.85-26.07,41.78-39.1l0,0c-10.19,15.74-23.21,30.84-39.07,45.29
				c-15.73,14.45-30.56,30-44.49,46.65c-13.93,16.78-25.27,34.65-34.04,53.62C76.79,1585.2,74.66,1607.27,79.3,1632.3L79.3,1632.3z
				M345.26,1251.95L345.26,1251.95c9.28,0,14.89-1.16,16.83-3.48c1.81-2.32,5.03-3.48,9.67-3.48l0,0
				c18.57-18.58,39.72-35.29,63.44-50.13c23.6-14.97,46.55-31.74,68.86-50.33l0,0c-4.64,0-9.03,1.42-13.15,4.26
				c-4.25,2.84-6.38,1.42-6.38-4.26l0,0c-4.64,13.94-12.25,20.71-22.82,20.32c-10.7-0.52-19.79-0.77-27.27-0.77l0,0
				c3.74-4.65,9.09-9.03,16.05-13.16c6.96-4.26,12.77-6.39,17.41-6.39l0,0c-4.64-4.65-4.19-8.58,1.35-11.81s10.64-4.84,15.28-4.84
				l0,0c0,1.81-1.35,4.13-4.06,6.97l0,0c-1.93,0.9-3.35,1.36-4.26,1.36l0,0c13.93-4.65,27.4-11.16,40.43-19.55
				c13.02-8.26,26.05-18.91,39.07-31.94l0,0c-6.58,1.81-12.64,5.29-18.18,10.45c-5.54,5.03-11.09,9.87-16.63,14.52
				c-5.67,4.64-11.48,8.84-17.41,12.58c-6.06,3.74-12.38,5.61-18.96,5.61l0,0c13.93-13.03,29.01-23.23,45.26-30.58
				c16.25-7.48,31.33-18.2,45.26-32.13l0,0c7.48-4.65,16.57-9.03,27.27-13.16c10.7-4.26,16.05-8.71,16.05-13.36l0,0
				c-4.64,0-11.86,1.87-21.66,5.61c-9.8,3.74-17.02,7.94-21.66,12.58l0,0c-7.35,0-13.35,1.36-17.99,4.07
				c-4.64,2.84-9.28,6.32-13.93,10.45c-4.64,4.26-9.28,8.45-13.93,12.58c-4.64,4.26-10.25,7.29-16.83,9.1l0,0
				c0,1.81-0.45,3.68-1.35,5.61l0,0c-1.8,2.71-4.13,4.06-6.96,4.06l0,0h-8.32c0,3.74-4.9,7.48-14.7,11.23
				c-9.67,3.74-16.83,5.61-21.47,5.61l0,0c-4.64,0-6.25,1.36-4.84,4.06c1.29,2.84-0.39,4.26-5.03,4.26l0,0
				c-7.35,4.65-15.47,9.29-24.37,13.94c-8.77,4.65-18.25,12.07-28.43,22.26l0,0h-8.32c-13.02,17.68-28.11,33.23-45.26,46.65
				c-17.28,13.55-34.24,27.29-50.87,41.23l0,0c-4.64,9.29-12.31,16.26-23.02,20.9c-10.7,4.65-21.15,9.29-31.33,13.94l0,0
				c-4.64,0-11.15,3.48-19.54,10.45c-8.38,6.97-10.25,15.55-5.61,25.74l0,0c-9.28,9.29-18.31,16.52-27.08,21.68
				c-8.77,5.03-16.89,12.19-24.37,21.49l0,0h-12.57c-3.74,5.55-7.42,9.03-11.03,10.45c-3.74,1.42-5.61,4.45-5.61,9.1l0,0h9.67
				c0,4.64-1.61,7.42-4.83,8.32c-3.22,0.9-4.84,3.68-4.84,8.32l0,0c11.09-9.29,16.63-17.61,16.63-24.97l0,0
				c4.64,0,8.38,1.36,11.22,4.06l0,0c0.9,1.94,1.35,3.36,1.35,4.26l0,0c0-4.65,1.16-4.65,3.48,0c2.32,4.64,5.8,4.64,10.44,0l0,0
				c-2.84,0-5.16-0.45-6.96-1.36l0,0c-4.64-1.94-6.96-4.26-6.96-6.97l0,0c7.48-5.55,13.73-12.77,18.76-21.68
				c5.16-8.77,12.83-11.29,23.02-7.55l0,0c4.64-3.74,7.67-7.48,9.09-11.23c1.42-3.74,4.45-5.61,9.09-5.61l0,0v-8.32
				c12.89-13.03,26.31-25.81,40.23-38.33c13.93-12.52,29.72-23.42,47.39-32.71l0,0c-0.9,0-1.81,0.45-2.71,1.35l0,0
				c-1.93,1.81-1.03,4.13,2.71,6.97l0,0c0-4.65,0.26-7.23,0.77-7.74c0.39-0.39,2.9-0.58,7.54-0.58l0,0c0-6.58,2.58-12.19,7.74-16.84
				c5.16-4.65,11.22-8.77,18.18-12.39c6.96-3.74,14.12-7.48,21.47-11.23c7.48-3.74,13.54-7.94,18.18-12.58l0,0
				c0.9,1.94,3.22,2.39,6.96,1.36c3.74-0.9,7.67-2.71,11.8-5.42c4.13-2.84,7.61-6.13,10.44-9.87c2.84-3.74,4.26-7.94,4.26-12.58l0,0
				c0,4.64-1.42,8.39-4.26,11.23c-2.84,2.84-4.26,1.94-4.26-2.71l0,0c0-4.65,3.29-8.65,9.86-12c6.45-3.23,11.99-4.84,16.63-4.84l0,0
				c0,4.65-3.03,7.42-9.09,8.32c-5.93,1.03-8.9,3.87-8.9,8.52l0,0c9.28,0,16.44-2.32,21.47-6.97c5.16-4.65,12.38-5.16,21.66-1.55l0,0
				c-4.64,4.64-9.09,7.23-13.35,7.74c-4.13,0.52-8.06,0.77-11.8,0.77l0,0v8.32c-13.02,9.29-27.85,18.58-44.49,27.87
				C373.18,1226.4,358.29,1238.01,345.26,1251.95L345.26,1251.95z M355.13,1235.11L355.13,1235.11c-4.64,4.65-9.54,8.84-14.7,12.58
				c-5.03,3.74-12.7,7.94-23.02,12.58l0,0c0-4.65,0.26-6.06,0.77-4.26c0.52,1.94,3.1,0.58,7.74-4.06l0,0
				c-8.38,0-13.99,4.39-16.83,13.16c-2.71,8.9-8.25,13.36-16.64,13.36l0,0c0,6.45-3.74,11.1-11.22,13.94
				c-7.35,2.71-15.22,5.48-23.6,8.32c-8.38,2.71-15.6,5.48-21.66,8.32c-6.06,2.84-8.12,7.48-6.19,13.94l0,0
				c1.8,0,3.67-0.45,5.61-1.36l0,0c1.81-0.9,3.61-1.87,5.42-2.9c1.93-0.9,3.8-2.26,5.61-4.06l0,0c0-1.94,0.45-3.81,1.35-5.61l0,0
				c1.93-3.74,5.22-5.61,9.86-5.61l0,0c-5.54,5.55-8.83,9.03-9.86,10.45c-0.9,1.42-1.35,4.45-1.35,9.1l0,0
				c-4.64,4.64-13.22,10.71-25.73,18.19c-12.51,7.36-21.08,15.68-25.72,24.97l0,0c-5.55,0-9.03,1.87-10.45,5.61
				c-1.42,3.74-4.45,5.61-9.09,5.61l0,0v8.32c0,4.64-1.61,7.23-4.84,7.74c-3.22,0.39-6.25,0.58-9.09,0.58l0,0h5.61
				c-9.28,13.03-19.73,25.36-31.33,36.97c-11.61,11.61-22.5,20.2-32.69,25.74l0,0c0-10.19,4.84-17.61,14.51-22.26
				c9.8-4.65,14.7-9.29,14.7-13.94l0,0c-14.83,8.39-25.27,18.13-31.33,29.23c-6.06,11.23-16.5,21.94-31.33,32.13l0,0
				c-1.93,4.65-5.22,9.03-9.86,13.16c-4.64,4.26-8.77,9.16-12.38,14.71c-3.74,5.55-6.32,11.55-7.74,18
				c-1.42,6.58,0.19,14.07,4.84,22.45l0,0c4.64-4.65,5.8-7.48,3.48-8.52c-2.32-0.9-3.48-3.68-3.48-8.32l0,0
				c0-4.65,1.42-7.68,4.26-9.1c2.71-1.29,4.06-3.81,4.06-7.55l0,0c0,3.74-1.16,6.26-3.48,7.55c-2.32,1.42-1.16,4.45,3.48,9.1l0,0
				c4.64,0,7.67-2.77,9.09-8.32c1.42-5.55,4-8.32,7.74-8.32l0,0c4.64-4.65,9.28-10.9,13.93-18.78c4.64-8,9.74-17.1,15.28-27.29l0,0
				c-2.84,0-5.42,1.16-7.74,3.48c-2.32,2.32-4.38,4.45-6.19,6.39l0,0c-2.84,3.61-4.71,6.84-5.61,9.68l0,0
				c0-4.65,1.87-9.29,5.61-13.94c3.74-4.64,8.38-9.29,13.93-13.94l0,0c0.9,0,1.35,1.42,1.35,4.26l0,0c0,1.81-0.45,3.16-1.35,4.07l0,0
				c1.81-4.65,3.42-7.16,4.83-7.55c1.42-0.52,5.35-0.77,11.8-0.77l0,0c16.76-21.42,34.69-42.07,53.77-61.94
				c18.96-20,41.91-37.42,68.86-52.26l0,0c0-16.78,8.38-25.16,25.15-25.16l0,0v8.32c0-4.65,3.22-9.03,9.67-13.16
				c6.45-4.26,9.67-9.16,9.67-14.71l0,0c-4.64,5.55-7.61,10-8.9,13.36c-1.42,3.23-4.9,2.52-10.44-2.13l0,0
				c5.54-5.55,9.48-9.74,11.8-12.58c2.32-2.84,8.12-4.26,17.41-4.26l0,0c0,2.84-1.16,4.52-3.48,5.03c-2.32,0.39-1.16,0.58,3.48,0.58
				l0,0c0-2.71,2.77-4.77,8.32-6.19c5.54-1.42,8.32-4.9,8.32-10.45l0,0c-4.64,0-7.42,2.52-8.32,7.55c-0.9,5.16-3.68,6.32-8.32,3.48
				l0,0c13.02-13.94,24.37-24.58,34.04-31.94C336.3,1258.4,345.84,1248.14,355.13,1235.11L355.13,1235.11z M555.71,1144.52h19.34
				c-13.93,10.32-29.01,19.16-45.26,26.52c-16.25,7.48-31.33,13.55-45.26,18.2l0,0c-21.28,23.23-43.33,42.52-66.15,57.88
				c-22.69,15.23-47.07,32.13-73.11,50.71l0,0c-22.18,21.42-44.23,41.87-66.15,61.36c-21.79,19.48-43.84,39.94-66.15,61.36l0,0
				c13.02-17.68,27.92-35.1,44.68-52.26c16.64-17.16,33.79-32.26,51.45-45.29l0,0c1.93-6.45,5.42-11.55,10.44-15.29
				c5.16-3.74,10.77-7.23,16.83-10.45c5.93-3.23,11.48-6.71,16.63-10.45c5.16-3.74,8.64-9.36,10.44-16.84l0,0
				c16.76-9.29,31.14-19.48,43.13-30.58c12.12-11.1,26.5-18.07,43.13-20.9l0,0c13.02-18.58,29.53-32.07,49.52-40.46
				C519.21,1169.62,538.04,1158.46,555.71,1144.52L555.71,1144.52L555.71,1144.52z M1907.93,931.41L1907.93,931.41
				c-3.74,1.81-7.48,2.71-11.22,2.71c-3.74,0-9.28-0.9-16.63-2.71l0,0c5.54-4.65,9.93-6.26,13.15-4.84
				C1896.45,927.86,1901.35,929.47,1907.93,931.41L1907.93,931.41z M1602.9,985.8L1602.9,985.8c0,3.61-5.35,7.29-16.05,11.03
				c-10.7,3.74-19.28,6.52-25.73,8.32l0,0c-6.45,0-12.7-0.19-18.76-0.58c-6.06-0.52-12.31,1.55-18.76,6.19l0,0
				c0-2.71,1.81-5.03,5.42-6.97l0,0c1.93-0.9,4.26-1.81,6.96-2.71l0,0c5.67-2.84,11.48-4.26,17.41-4.26c6.06,0,12.12,0,18.18,0
				s11.61-0.71,16.64-2.13C1593.36,993.41,1598.26,990.44,1602.9,985.8L1602.9,985.8z M1410.64,959.28L1410.64,959.28
				c-7.35,4.65-15.47,8.32-24.37,11.03c-8.77,2.84-18.25,5.16-28.43,6.97l0,0c6.45-6.45,15.02-10.39,25.73-11.81
				C1394.26,964.06,1403.29,961.99,1410.64,959.28L1410.64,959.28z M1577.76,984.25L1577.76,984.25c0,2.84-1.35,4.26-4.06,4.26l0,0
				h-2.9c-1.81-0.9-1.81-1.81,0-2.71l0,0C1572.73,985.8,1575.05,985.28,1577.76,984.25L1577.76,984.25z M1318.76,989.86h5.61
				c1.81,4.65,1.35,5.81-1.35,3.48c-2.84-2.32-5.16-2.06-6.96,0.77l0,0C1313.22,991.28,1314.12,989.86,1318.76,989.86L1318.76,989.86
				L1318.76,989.86z M2506.77,822.63L2506.77,822.63c-31.59,1.94-58.29,4.71-80.08,8.32c-21.79,3.74-45.71,7.48-71.76,11.23l0,0h4.26
				c-1.93,1.81-6.13,2.52-12.57,2.13c-6.58-0.52-13.09-1.23-19.54-2.13l0,0c-0.9,0.9-2.32,1.81-4.26,2.71l0,0
				c-1.81,1.03-4.58,1.55-8.32,1.55l0,0c-13.02,1.81-27.14,2.71-42.36,2.71c-15.35,0-29.53,0.9-42.55,2.71l0,0l-5.61,5.61
				c-1.81,1.94-3.16,3.1-4.06,3.48c-1.03,0.52-0.58-0.19,1.35-2.13l0,0c-5.55,1.94-12.32,2.64-20.31,2.13
				c-7.87-0.39-15.02,0.77-21.47,3.48l0,0c-6.58,1.93-14.25,3.81-23.02,5.61c-8.77,1.81-17.34,2.26-25.73,1.36l0,0
				c0.9,1.94,3.22,2.9,6.96,2.9l0,0c1.81,0,3.16-0.52,4.06-1.55l0,0c-10.19,1.94-23.4,4.77-39.65,8.52
				c-16.25,3.61-30.37,6.39-42.36,8.32l0,0c-4.64,0-7.48,0-8.51,0c-0.9,0-2.71-0.45-5.42-1.35l0,0c0,4.64-1.16,5.55-3.48,2.71
				c-2.32-2.84-3.48-1.94-3.48,2.71l0,0h-12.57c-2.84,4.64-6.77,7.23-11.8,7.74c-5.16,0.52-9.61,0.77-13.35,0.77l0,0
				c-2.71,1.81-8.06,3.42-16.05,4.84c-7.87,1.42-15.47,1.16-22.82-0.77l0,0c-1.93,1.94-6.13,3.1-12.57,3.48
				c-6.58,0.52-11.67,0.32-15.28-0.58l0,0v5.42c-4.64,1.94-10.25,2.64-16.83,2.13c-6.45-0.39-12.44-0.84-17.99-1.36
				c-5.67-0.52-10.57-0.07-14.7,1.36c-4.13,1.42-6.19,4.45-6.19,9.1l0,0c-1.03,3.74-1.29,5.81-0.77,6.19c0.52,0.52,0.97,0.52,1.35,0
				c0.52-0.39,0.77-0.84,0.77-1.35c0-0.39-0.45-0.13-1.35,0.77l0,0c-1.93,4.65-4.06,7.87-6.38,9.68c-2.32,1.94-5.8,3.81-10.44,5.61
				l0,0c-7.35,9.29-14.06,17.68-20.12,25.16c-6.06,7.36-14.18,18.45-24.37,33.29l0,0c-8.38,23.23-19.28,45.1-32.69,65.62
				c-13.54,20.39-27.72,41.75-42.55,64.07l0,0c0,4.65-2.06,8.39-6.19,11.23c-4.26,2.71-6.83,7.81-7.74,15.29l0,0
				c-5.54,4.65-9.03,8.13-10.44,10.45c-1.42,2.32-2.13,5.36-2.13,9.1l0,0c0.9,4.65,0,7.87-2.71,9.68c-2.84,1.81-4.25,6-4.25,12.58
				l0,0c-1.81-2.84-4.58-1.48-8.32,4.06l0,0l-5.61,11.23c-1.81,3.74-0.84,4.64,2.9,2.71l0,0c1.81,0,3.61-0.9,5.42-2.71l0,0
				c-6.45,6.45-12.7,12-18.76,16.65c-6.06,4.65-9.09,12.13-9.09,22.45l0,0c-1.81,0-2.71,1.36-2.71,4.07l0,0c0,0.9,0.45,1.87,1.35,2.9
				l0,0l-8.32,5.42c-2.84,0-3.74,0.52-2.71,1.55l0,0l2.71,2.71c-4.64,0-8.58,0.45-11.8,1.36c-3.22,0.9-4.84,4.19-4.84,9.87l0,0
				c0,1.81-0.52,3.16-1.55,4.06c-0.9,0.9-0.39,3.68,1.55,8.32l0,0c-3.74-1.81-5.87-2.45-6.38-1.94c-0.39,0.39,0.32,2.9,2.13,7.55l0,0
				c-1.81-7.36-1.35-12.9,1.35-16.65c2.84-3.74,5.16-9.81,6.96-18.19l0,0c-13.02,16.77-24.18,34.2-33.46,52.26
				c-9.28,18.19-19.92,35.62-31.91,52.26l0,0v-6.97c-4.64,3.74-6.25,6.32-4.84,7.74c1.29,1.42-0.39,5.35-5.03,11.81l0,0v-4.26
				c-4.64,2.84-5.55,4.26-2.71,4.26l0,0h2.71c-1.81,4.64-2.45,5.81-1.93,3.48c0.39-2.32-1.29-3.48-5.03-3.48l0,0
				c-8.25,13.03-15.67,26.52-22.24,40.45c-6.45,13.94-12.96,27.42-19.54,40.45l0,0c7.48-15.87,15.6-32.39,24.37-49.55
				c8.9-17.16,18.44-34.13,28.63-50.91l0,0c-8.38,7.48-16.51,15.61-24.37,24.39c-7.87,8.9-12.25,18.9-13.15,30l0,0
				c-2.84-5.55-4.26-6-4.26-1.35l0,0v8.32c-4.64,0-7.41,1.87-8.32,5.61l0,0c-5.54,13.03-14.38,28.32-26.5,45.87
				c-12.12,17.68-20.95,33.03-26.5,46.07l0,0c1.93-4.65,2.64-9.29,2.13-13.94c-0.52-4.65,2.51-6.97,9.09-6.97l0,0
				c-3.74-7.48-4.19-11.87-1.35-13.16c2.71-1.42,6.38-4.45,11.03-9.1l0,0c-1.8,0-3.67,0.45-5.61,1.35l0,0
				c-1.81,0.9-3.61,1.81-5.42,2.71c-1.93,1.03-3.8,2.45-5.61,4.26l0,0c-4.64,13.03-11.41,27.87-20.31,44.52
				c-8.77,16.78-17.34,31.68-25.73,44.71l0,0c0.9-1.94,0-1.03-2.71,2.71l0,0c-1.93,2.84-3.8,6.13-5.61,9.87l0,0
				c-2.84,13.94-9.09,28.07-18.76,42.39c-9.8,14.45-17.92,28.2-24.37,41.23l0,0c0.9-8.39,3.93-18.65,9.09-30.78
				c5.03-12,10.57-24.32,16.63-36.97c6.06-12.52,12.12-25.03,18.18-37.55c5.93-12.52,10.77-23.87,14.51-34.07l0,0
				c-11.99,12.9-21.73,28.91-29.21,48c-7.48,19.1-18.63,37.94-33.46,56.52l0,0c1.93-1.03,3.35-2,4.25-2.9l0,0
				c0.9-0.9-0.52-2.26-4.25-4.07l0,0c-1.81,7.36-4.84,14.97-9.09,22.84c-4.13,8-6.64,17.1-7.54,27.29l0,0c-4.64,0-7.41,0.9-8.32,2.71
				c-1.03,1.93-2,4.26-2.9,6.97l0,0c-0.9,3.74-0.9,7.03,0,9.87l0,0c-2.71,0.9-5.03,2.26-6.96,4.06l0,0
				c-1.81,1.94-3.42,4.26-4.84,6.97c-1.42,2.84-2.13,6.13-2.13,9.87l0,0v-5.61c0-4.64,0.45-7.94,1.35-9.87l0,0
				c-2.71,6.58-3.87,13.55-3.48,20.91c0.51,7.48-1.1,14-4.84,19.55l0,0c-4.64-5.55-4.38-10.39,0.77-14.52
				c5.03-4.26,5.74-8.71,2.13-13.36l0,0c-1.93,6.58-5.22,13.36-9.87,20.32c-4.64,6.97-9.28,13.68-13.93,20.13l0,0
				c-0.9,2.84-0.9,7.23,0,13.16c0.9,6.06-0.97,11.42-5.61,16.07l0,0l1.55-8.32c-8.38,6.45-13.28,15.29-14.7,26.52
				c-1.42,11.1-5.35,17.61-11.8,19.55l0,0c14.83-45.55,31.98-90.39,51.45-134.53c19.47-44.13,40.17-87.55,62.09-130.27
				c21.79-42.84,44.04-85.36,66.73-127.56c22.82-42.33,43.97-84.39,63.44-126.2l0,0c3.74-6.45,6.06-11.55,6.96-15.29
				c0.9-3.74,3.68-9.81,8.32-18.19l0,0c2.84-1.81,6.58-5.74,11.22-11.81c4.64-6.07,6.96-11.42,6.96-16.07l0,0
				c7.35-9.29,13.6-20.39,18.76-33.29c5.03-13.03,9.41-26.07,13.15-39.1l0,0l9.86-4.26c0-7.36,3.48-15.68,10.44-24.97
				c6.96-9.29,11.8-17.23,14.51-23.81l0,0c16.76-26.84,33.72-54,50.87-81.49c17.15-27.36,33.14-50.78,47.97-70.26l0,0
				c-1.8,0-3.16,0-4.06,0c-0.9,0-3.68-0.97-8.32-2.9l0,0c0.9-1.81,3.22-2,6.96-0.58c3.61,1.29,5.93,0.13,6.96-3.48l0,0
				c-13.02,0-24.44,0.19-34.24,0.58c-9.67,0.52-20.57,1.68-32.69,3.48l0,0c1.8-1.81,6.45-3.16,13.93-4.06
				c7.48-1.03,12.57-2.45,15.28-4.26l0,0c4.64,0.9,7.93,0.45,9.86-1.36l0,0c0.9-0.9,1.35-1.87,1.35-2.9l0,0
				c1.8,1.94,2.71,3.81,2.71,5.61c0,1.94,1.87,2.9,5.61,2.9l0,0c2.84,0,7.93-1.42,15.28-4.26c7.48-2.84,13.54-4.26,18.18-4.26l0,0
				c0-4.65-0.97-7.87-2.9-9.68c-1.81-1.81-0.84-2.71,2.9-2.71l0,0c-20.5-1.94-34.43,0.84-41.78,8.32l0,0h-4.26
				c-2.71,0-4.06,1.36-4.06,4.07l0,0c-3.74-4.65-6.06-6-6.96-4.07c-1.03,1.81-2.45,2.71-4.26,2.71l0,0
				c-7.48-1.81-11.22-2.52-11.22-2.13c0,0.52-2.32,1.68-6.96,3.48l0,0c-3.61,0-7.74-1.16-12.38-3.48c-4.64-2.32-6.96-0.19-6.96,6.39
				l0,0c-2.84-1.94-5.87-1.94-9.09,0c-3.22,1.81-6.71,3.87-10.44,6.19c-3.74,2.32-7.22,4.19-10.45,5.61
				c-3.22,1.42-6.25,0.26-9.09-3.48l0,0c-1.81,0-3.67,0.9-5.61,2.71l0,0c-0.9,1.03-1.35,2-1.35,2.9l0,0c-1.81,0-2.51-0.26-2.13-0.77
				c0.52-0.39-0.19-2-2.13-4.84l0,0c-2.71,5.55-6.19,9.03-10.44,10.45c-4.13,1.42-8.77,2.13-13.93,2.13c-5.03,0-9.87,0.45-14.51,1.35
				c-4.64,0.9-8.83,3.23-12.57,6.97l0,0c6.45,0.9,10.64,0.65,12.57-0.77c1.81-1.29,5.03-1.94,9.67-1.94l0,0
				c-4.64,6.45-11.15,9.68-19.54,9.68c-8.25,0-14.7,0.9-19.34,2.71l0,0c-1.93,3.74-3.09,6.06-3.48,6.97
				c-0.52,1.03-1.68,2.9-3.48,5.61l0,0c-7.48,1.94-14.96,3.36-22.44,4.26c-7.35,0.9-14.31,4.58-20.89,11.03l0,0
				c-1.8,1.03-4.58,1.55-8.32,1.55l0,0l-12.57,6.97c-3.61,1.81-8.9,3.61-15.86,5.42c-6.96,1.94-11.41,3.36-13.35,4.26l0,0
				c4.64,1.81,9.99,2.26,16.05,1.36c6.06-0.9,13.28-1.81,21.66-2.71l0,0c-1.03,2.71-3.35,4.06-6.96,4.06c-3.74,0-7.74,0-11.99,0
				c-4.13,0-7.8,0.26-11.02,0.77c-3.22,0.52-5.35,1.68-6.38,3.49l0,0c-0.9,4.64,3.29,6.52,12.57,5.61c9.28-0.9,16.25-2.32,20.89-4.26
				l0,0c5.54,0,9.99-0.71,13.35-2.13c3.22-1.29,7.16-1.94,11.8-1.94l0,0c2.71,1.81,5.48,2.71,8.32,2.71l0,0
				c6.45,0,10.19-2.32,11.22-6.97l0,0c-1.93,6.45-7.74,11.1-17.41,13.94c-9.8,2.84-17.47,5.16-23.02,6.97l0,0
				c-2.84,1.81-7.29,2.71-13.35,2.71c-5.93,0-12.64,0.52-20.12,1.55l0,0c-2.84,4.65-7.93,7.16-15.28,7.55
				c-7.48,0.52-12.57,1.68-15.28,3.48l0,0l4.06,5.61c-1.81,0-3.16,0.71-4.06,2.13c-1.03,1.42-3.35,2.13-6.96,2.13l0,0
				c-1.93,10.19-5.22,18.52-9.86,24.97l0,0c-4.64,5.55-8.58,9.29-11.8,11.23c-3.22,1.81-7.16,5.03-11.8,9.68l0,0
				c-2.84,3.74-4.96,6.77-6.38,9.1c-1.29,2.32-5.22,4.39-11.8,6.19l0,0c-4.64,0-7.87,0.97-9.67,2.9l0,0c-1.93,0.9-2.9,1.81-2.9,2.71
				l0,0c-8.25-5.55-14.7-4.58-19.34,2.9l0,0c-5.67,5.55-14.06,8.32-25.15,8.32l0,0c-7.48-3.74-13.54-3.29-18.18,1.36l0,0v-4.26
				c-1.81,0-5.48,0-11.03,0c-5.54,0-7.41-2.78-5.61-8.32l0,0h-6.96c0-4.65-2.06-7.68-6.19-9.1c-4.26-1.29-5.42-4.26-3.48-8.9l0,0
				c0-5.68-0.26-8.97-0.77-9.87c-0.52-0.9-1.68-1.81-3.48-2.71l0,0l-4.26-2.9c-3.61-7.36-4.77-16.84-3.48-28.45
				c1.42-11.61,1.22-22.07-0.58-31.36l0,0c0-3.74-1.16-7.03-3.48-9.87c-2.32-2.71-2.58-5.94-0.77-9.68l0,0
				c0-2.84-1.87-10.52-5.61-23.03c-3.61-12.52-4.06-22-1.35-28.45l0,0c7.48-1.03,14.44-2.9,20.89-5.61l0,0
				c5.54-1.94,10.64-3.81,15.28-5.61c4.64-1.81,7.93-3.68,9.86-5.61l0,0h8.32c0,0.9,0.45,0.9,1.35,0l0,0c1.93,0,2.9-2.32,2.9-6.97
				l0,0l2.71,2.9c2.84,2.71,4.25,1.74,4.25-2.9l0,0c2.71,1.94,4.51,1.74,5.42-0.58c1.03-2.32,3.35-3.48,6.96-3.48l0,0
				c1.93,1.81,3.81,3.16,5.61,4.06l0,0c4.64,2.84,6.96,2.39,6.96-1.35l0,0c2.84-1.81,2.64-2.71-0.58-2.71
				c-3.35,0-3.16-0.52,0.58-1.55l0,0c12.12-5.55,25.15-10.65,39.07-15.29l0,0c0,4.65-0.45,8.84-1.35,12.58l0,0
				c4.64-1.81,7.41-3.23,8.32-4.26c0.9-0.9,2.77-2.26,5.61-4.07l0,0c-2.84-2.84-4.51-3.1-5.03-0.77c-0.39,2.32-0.58,2.13-0.58-0.58
				l0,0c0.9,0,2.26-0.52,4.06-1.55l0,0c3.74-1.81,6.58-2.71,8.51-2.71l0,0c0,2.84-1.16,3.74-3.48,2.71c-2.32-0.9-3.48,0.06-3.48,2.9
				l0,0c0,1.81,1.35,2.26,4.06,1.36c2.84-0.9,5.61-1.36,8.32-1.36l0,0v-5.61c10.32-5.55,22.44-9.29,36.36-11.23
				c13.93-1.81,27.85-5.03,41.78-9.68l0,0c1.8,0.9,3.16,0.64,4.06-0.77c0.9-1.29,2.77-1.94,5.61-1.94l0,0l8.32,2.71
				c0-3.74,0.97-4.9,2.9-3.48c1.81,1.42,3.61,0.26,5.42-3.48l0,0c4.64,1.81,7.48,1.55,8.51-0.77c0.9-2.32,3.22-3.48,6.96-3.48l0,0
				h4.06c7.48-1.81,15.86-3.87,25.15-6.19c9.28-2.32,19.02-4.39,29.21-6.19l0,0c0.9,1.81,1.61,2.45,2.13,1.94
				c0.39-0.39,2.9-1.55,7.54-3.48l0,0c6.58,1.03,12.64,0.58,18.18-1.36c5.54-1.81,12.06-4.13,19.54-6.97l0,0c1.81,0,3.16,0,4.06,0
				c1.03,0,3.87,0.45,8.51,1.36l0,0c12.89-4.65,24.69-8.58,35.4-11.81c10.7-3.23,22.11-3.94,34.24-2.13l0,0
				c0.9,1.03,1.81,1.55,2.71,1.55l0,0h6.96c8.38-3.74,22.31-8.39,41.78-13.94l0,0h12.57c3.74-1.94,9.28-3.61,16.63-5.03
				c7.48-1.29,13.99-1.03,19.54,0.77l0,0c9.28-1.81,17.15-2.52,23.6-2.13c6.58,0.52,8.9-5.29,6.96-17.42l0,0
				c1.93-2.71,2.45-5.74,1.55-9.1c-1.03-3.23-0.13-5.74,2.71-7.55l0,0h6.96c0-1.94,0.45-3.36,1.35-4.26l0,0
				c1.93-1.81,4.26-2.26,6.96-1.36l0,0c5.54-1.81,11.35-1.55,17.41,0.77c6.06,2.32,12.12,5.29,18.18,8.9
				c6.06,3.74,11.61,7.48,16.63,11.23c5.16,3.74,10.06,5.61,14.7,5.61l0,0c6.45,1.81,14.12,2,23.02,0.58
				c8.77-1.29,15.47-2.9,20.12-4.84l0,0c10.19,1.94,18.57,0.58,25.15-4.06l0,0c18.57-1.03,36.43-2.19,53.58-3.48
				c17.15-1.42,32.24-1.68,45.26-0.77l0,0c72.34-6.45,145.91-10.19,220.7-11.23C2349.65,823.08,2426.95,822.63,2506.77,822.63
				L2506.77,822.63z M1758.8,885.34L1758.8,885.34c6.58-0.9,10.57-0.9,11.99,0c1.29,0.9,3.8,0.45,7.54-1.36l0,0
				c-1.81-4.65-5.03-6.06-9.67-4.26C1764.02,881.66,1760.74,883.53,1758.8,885.34L1758.8,885.34z M1331.33,960.64L1331.33,960.64
				c-12.12,7.48-24.44,11.68-36.94,12.58c-12.51,0.9-22.5,5.1-29.98,12.58l0,0c13.02-2.84,27.21-5.42,42.55-7.74
				c15.34-2.32,26.69-7.23,34.04-14.71l0,0c-2.71,1.94-5.48,2.9-8.32,2.9C1329.98,966.25,1329.53,964.38,1331.33,960.64
				L1331.33,960.64z M1758.8,885.34L1758.8,885.34c-14.83,0-29.92,1.87-45.26,5.61c-15.22,3.74-29.34,6.06-42.36,6.97l0,0
				c-2.84,0-5.42-0.26-7.74-0.77c-2.32-0.39-5.35-0.58-9.09-0.58l0,0c-6.45-1.94-12.89-0.77-19.34,3.48
				c-6.58,4.13-12.64,5.74-18.18,4.84l0,0l-5.61-2.71l-2.71,4.06h-22.24c-2.84,0-4.26,0.45-4.26,1.36l0,0v1.55
				c-7.48-1.94-13.02-1.74-16.63,0.58c-3.74,2.32-7.93,2.58-12.57,0.78l0,0c-5.54,5.55-10.64,6.9-15.28,4.06l0,0
				c-9.28,1.94-18.83,4.97-28.63,9.1c-9.8,4.26-21.15,6.84-34.04,7.74l0,0c-13.02,1.81-25.79,3.68-38.3,5.61
				c-12.64,1.81-24.95,5.03-36.94,9.68l0,0c-0.9,2.84-2.06,3.74-3.48,2.71c-1.42-0.9-3.03,0.06-4.84,2.9l0,0
				c-4.64-0.9-7.48-0.45-8.51,1.36c-0.9,1.81-2.26,2.26-4.06,1.35l0,0c-2.84,2.84-7.48,4.45-13.93,4.84
				c-6.58,0.52-12.18,1.68-16.83,3.48l0,0l1.55-6.97c-4.64,6.58-9.99,11.03-16.05,13.36c-6.06,2.32-12.31,4.39-18.76,6.19l0,0
				c-5.67,2.84-12.9,5.16-21.66,6.97c-8.77,1.94-16.44,3.81-23.02,5.61l0,0c-6.45,2.84-11.8,5.61-16.05,8.32
				c-4.13,2.84-7.61,7.03-10.44,12.58l0,0c4.64,0,10.7-2.78,18.18-8.32l0,0c15.73-5.55,31.53-9.74,47.39-12.58
				c15.73-2.84,31.98-6.58,48.74-11.23l0,0c-7.48,5.68-16.31,8.52-26.5,8.52c-10.19,0-18.57,2.32-25.15,6.97l0,0
				c2.84,0.9,6.13,1.35,9.86,1.35l0,0c-6.58,1.81-11.22,3.16-13.93,4.06c-2.84,1.03-6.58,3.36-11.22,6.97l0,0
				c8.38,0,17.47-1.36,27.27-4.06c9.67-2.84,18.25-5.16,25.73-6.97l0,0c13.02-4.65,26.24-7.42,39.65-8.32
				c13.41-1.03,25.27-5.68,35.59-13.94l0,0c-1.93-3.74-4.51-4-7.74-0.77c-3.22,3.23-4.84,2.52-4.84-2.13l0,0
				c7.35-1.81,14.31-2.71,20.89-2.71c6.45,0,10.64-2.32,12.57-6.97l0,0c0.9-4.64,0.9-5.1,0-1.36c-1.03,3.61-3.35,3.1-6.96-1.55l0,0
				c8.25-5.55,18.89-8.32,31.92-8.32l0,0c-0.9,0-1.8,0.45-2.71,1.36l0,0c-1.93,1.93-3.35,3.81-4.26,5.61l0,0
				c7.48-1.81,13.28-3.16,17.41-4.06c4.26-1.03,9.16-2.45,14.7-4.26l0,0h-6.96c7.35-6.45,12.7-8.07,16.05-4.84
				c3.22,3.23,6.19,3.42,8.9,0.58l0,0c3.74,0,6.32-1.16,7.74-3.48c1.42-2.32,3.03-2.52,4.84-0.58l0,0c0,2.71-0.71,3.16-2.13,1.36
				c-1.29-1.81-2.45-0.9-3.48,2.71l0,0c6.58-1.81,14.51-3.42,23.79-4.84c9.28-1.42,17.15-2.58,23.6-3.48l0,0
				c-6.45,4.65-15.02,7.68-25.73,9.1c-10.7,1.42-20.24,3.03-28.63,4.84l0,0c13.02-0.9,27.66-2.07,43.91-3.48
				c16.25-1.42,31.79-5.81,46.61-13.16l0,0c-4.64-0.9-8.77-0.45-12.38,1.36c-3.74,1.81-6.58,2.71-8.51,2.71l0,0
				c6.58-6.45,13.8-9.68,21.66-9.68c7.87,0,15.09-0.9,21.66-2.71l0,0c-4.64-1.03-6.96-1.03-6.96,0c0,0.9-1.87-0.52-5.61-4.26l0,0
				c6.45,1.81,11.54,0.9,15.28-2.71c3.74-3.74,6.96-5.61,9.67-5.61l0,0c0,1.81,0.52,3.16,1.55,4.06l0,0c1.81,1.94,4.13,2.9,6.96,2.9
				l0,0v-6.97c2.71-1.94,5.22-2.65,7.54-2.13c2.32,0.52,4.45,0.97,6.38,1.35c1.8,0.52,3.87,0.78,6.19,0.78
				c2.32,0,5.35-1.87,9.09-5.61l0,0c-1.93,0-4.71,0.9-8.32,2.71l0,0c-1.93,1.03-3.35,1.55-4.26,1.55l0,0
				c6.45-3.74,14.31-6.32,23.6-7.74c9.28-1.42,18.38-2.58,27.27-3.48c8.77-0.9,17.6-2.06,26.5-3.48
				C1744.75,893.02,1752.35,889.99,1758.8,885.34L1758.8,885.34z M1505.42,952.31h-2.71H1505.42c0.9,0,1.8-1.42,2.71-4.26l0,0
				C1507.22,950.89,1506.32,952.31,1505.42,952.31L1505.42,952.31L1505.42,952.31z M1360.54,1002.45L1360.54,1002.45
				c6.58-1.81,14.7-3.68,24.37-5.61c9.8-1.81,16.05-6,18.76-12.58l0,0c-6.45,4.65-14.05,6.52-22.82,5.61
				C1371.95,988.96,1365.18,993.16,1360.54,1002.45L1360.54,1002.45z M1341.01,1006.7L1341.01,1006.7c1.03,0.9,2,0.9,2.9,0l0,0
				c0.9,0,2.26-1.87,4.06-5.61l0,0c-1.81,2.71-4.13,3.16-6.96,1.36C1338.3,1000.64,1338.3,1002.06,1341.01,1006.7L1341.01,1006.7z
				M1332.69,1008.06l2.9-2.9c-1.03,1.94-1.55,1.48-1.55-1.36l0,0c0-1.81,0.52-3.68,1.55-5.61l0,0c-1.03,1.94-2.45,3.36-4.26,4.26
				l0,0c-3.74,1.81-6.51,2.71-8.32,2.71l0,0l4.06,4.26C1329.92,1009.41,1331.79,1008.96,1332.69,1008.06L1332.69,1008.06
				L1332.69,1008.06z M1318.76,1006.7h-4.06c2.71,3.61,5.03,4.52,6.96,2.71l0,0c0.9-0.9,1.35-1.81,1.35-2.71l0,0H1318.76
				L1318.76,1006.7z M1595.94,1362.09L1595.94,1362.09c-0.9-4.64-0.64-8.13,0.77-10.45c1.29-2.32,1.03-3.48-0.77-3.48l0,0
				c-0.9,2.71-1.35,4.52-1.35,5.42C1594.58,1354.6,1595.04,1357.44,1595.94,1362.09L1595.94,1362.09z M1577.76,988.51L1577.76,988.51
				c13.02-3.74,25.14-7.48,36.36-11.23c11.09-3.61,23.15-6.39,36.17-8.32l0,0c3.74,0,1.42,1.42-6.96,4.26
				c-8.38,2.71-14.44,4.06-18.18,4.06l0,0c-4.64,1.94-11.35,3.81-20.12,5.61C1596.13,984.83,1587.04,986.7,1577.76,988.51
				L1577.76,988.51z M1636.36,1303.44L1636.36,1303.44c1.81-1.81,2.51-2.71,2.13-2.71c-0.52,0-0.77,0.9-0.77,2.71l0,0
				c-0.9,1.93-1.35,4.71-1.35,8.32l0,0c2.71,0,5.03-1.35,6.96-4.06l0,0c0.9-0.9,1.35-2.32,1.35-4.26l0,0
				c-1.81,3.74-4.13,7.03-6.96,9.87l0,0c-4.64,6.45-8.83,9.68-12.57,9.68l0,0c1.93-1.81,3.8-4.13,5.61-6.97l0,0
				C1634.49,1310.47,1636.36,1306.28,1636.36,1303.44L1636.36,1303.44z M1618.18,1338.28l2.9-2.71c6.45-1.94,7.8-0.77,4.06,3.48
				c-3.74,4.13-6.96,7.16-9.67,9.1l0,0C1615.47,1345.31,1616.38,1342.02,1618.18,1338.28L1618.18,1338.28L1618.18,1338.28z
				M1470.6,1529.32L1470.6,1529.32c0,8.26-3.03,16.13-9.09,23.62s-9.99,14.9-11.8,22.26l0,0c1.8-7.36,5.03-14.77,9.67-22.26
				C1464.02,1545.46,1467.76,1537.58,1470.6,1529.32L1470.6,1529.32z M2540.23,1063.81L2540.23,1063.81
				c1.81,1.81,0.13,2.26-5.03,1.36c-5.03-0.9-10.32-1.36-15.86-1.36l0,0c-11.22,0-23.34,0.45-36.36,1.36
				c-12.9,0.9-25.85,0.45-38.88-1.36l0,0C2477.5,1060.97,2509.54,1060.97,2540.23,1063.81L2540.23,1063.81z M2317.41,1458.09
				L2317.41,1458.09c-4.64,0-9.28-2.52-13.93-7.55c-4.64-5.16-7.93-9.61-9.86-13.36l0,0c4.64,1.94,8.83,5.42,12.57,10.45
				C2309.93,1452.8,2313.67,1456.29,2317.41,1458.09L2317.41,1458.09z M2171.18,1374.47L2171.18,1374.47c0.9-0.9-0.06-2.52-2.9-4.84
				c-2.71-2.32-3.16-2.52-1.35-0.58l0,0c0.9,0.9,1.35,2.52,1.35,4.84S2169.25,1376.41,2171.18,1374.47L2171.18,1374.47z
				M2317.41,1462.35L2317.41,1462.35c1.8-1.81,3.16-1.81,4.06,0c0.9,1.81,2.32,2.71,4.26,2.71l0,0c-1.93,1.94-3.55,1.94-4.84,0
				C2319.47,1463.26,2318.31,1462.35,2317.41,1462.35L2317.41,1462.35z M2368.86,1515.39L2368.86,1515.39c1.8-1.94,3.42-1.94,4.84,0
				c1.42,1.81,1.22,3.61-0.58,5.42l0,0c-1.93,0-2.64-0.65-2.13-1.94C2371.37,1517.45,2370.66,1516.29,2368.86,1515.39
				L2368.86,1515.39z M2375.82,1519.45L2375.82,1519.45c0,0.9,0.9,1.35,2.71,1.35c1.93,0,2.45,1.42,1.55,4.26l0,0
				C2377.24,1524.16,2375.82,1522.29,2375.82,1519.45L2375.82,1519.45z M2410.64,1550.23L2410.64,1550.23c0-3.74-1.42-5.61-4.26-5.61
				l0,0c1.93-1.94,3.61-1.94,5.03,0C2412.7,1546.42,2412.44,1548.29,2410.64,1550.23L2410.64,1550.23z M2251.84,1479L2251.84,1479
				c12.12,7.48,22.82,15.42,32.11,23.81c9.28,8.39,18.12,17.23,26.5,26.52c8.25,9.29,16.83,18.78,25.73,28.45
				c8.77,9.81,18.25,19.36,28.43,28.65l0,0c-18.57-15.87-37.33-33.1-56.29-51.68C2289.23,1516.16,2270.41,1497.58,2251.84,1479
				L2251.84,1479z M1937.14,1414.93L1937.14,1414.93c4.64,1.94,4.9,5.23,0.77,9.87c-4.26,4.65-7.29,6-9.09,4.07l0,0
				c0-2.71,0.9-4.58,2.71-5.61C1933.46,1422.35,1935.33,1419.57,1937.14,1414.93L1937.14,1414.93z M2425.92,1590.49L2425.92,1590.49
				c-3.74-1.81-8.12-4.58-13.15-8.32c-5.16-3.74-7.29-7.94-6.38-12.58l0,0c1.93,1.94,5.22,4.77,9.86,8.52
				C2420.89,1581.72,2424.11,1585.85,2425.92,1590.49L2425.92,1590.49z M1928.82,1433.12L1928.82,1433.12
				c-3.74,5.55-6.77,11.55-9.09,18c-2.32,6.58-5.8,8.9-10.45,6.97l0,0c3.74-4.65,6.96-9.48,9.67-14.52
				C1921.79,1438.42,1925.08,1434.93,1928.82,1433.12L1928.82,1433.12z M1899.61,1466.61L1899.61,1466.61
				c1.81,3.61,1.1,6.84-2.13,9.68c-3.22,2.84-5.35,6.07-6.38,9.68l0,0c-1.8-4.65-0.84-8.13,2.9-10.45
				C1897.74,1473.19,1899.61,1470.22,1899.61,1466.61L1899.61,1466.61z M2460.73,1661.72L2460.73,1661.72
				c-1.81,2.71-3.67,2.71-5.61,0c-1.81-2.84-1.81-5.16,0-6.97l0,0c-5.55-2.84-10.38-7.48-14.51-13.94
				c-4.26-6.58-8.7-12.19-13.35-16.84l0,0c5.67,1.94,11.99,7.03,18.96,15.29C2453.19,1647.66,2458.03,1655.14,2460.73,1661.72
				L2460.73,1661.72z M2463.64,1661.72L2463.64,1661.72c0.9,0.9,2.06,1.81,3.48,2.71c1.29,0.9,1.48,4.13,0.58,9.68l0,0
				c0.9,0,1.61-0.64,2.13-1.94c0.52-1.42,1.68-2.13,3.48-2.13l0,0c6.45,13.03,15.47,26.26,27.08,39.68
				c11.6,13.42,22.05,25.74,31.33,36.97l0,0c1.93,1.81,4.26,3.68,6.96,5.61c2.84,1.81,4.26,3.61,4.26,5.42l0,0
				c-14.83-12-28.76-26.13-41.78-42.39c-13.02-16.26-26.5-32.32-40.43-48.2l0,0C2460.73,1664.43,2461.7,1662.63,2463.64,1661.72
				L2463.64,1661.72z M2496.9,1703.53L2496.9,1703.53c2.84,0,5.87,1.61,9.09,4.84c3.22,3.23,5.8,6.26,7.74,9.1l0,0
				C2509.09,1711.79,2503.48,1707.15,2496.9,1703.53L2496.9,1703.53z M2568.08,1742.44L2568.08,1742.44
				c3.61,6.58,8.25,10.77,13.93,12.58l0,0c-1.93,1.81-4.51,1.1-7.74-2.13C2571.05,1749.66,2568.99,1746.18,2568.08,1742.44
				L2568.08,1742.44z M2544.29,1757.73L2544.29,1757.73c8.38,4.65,15.34,12.13,20.89,22.45c5.54,10.19,10.64,19.49,15.28,27.87l0,0
				c-6.45-10.32-12.7-18.97-18.76-25.94C2555.64,1775.15,2549.84,1767.02,2544.29,1757.73L2544.29,1757.73z M2590.33,1808.06
				L2590.33,1808.06c5.54,1.81,10.38,5.94,14.51,12.39c4.25,6.58,8.7,11.23,13.35,13.94l0,0c-5.54-0.9-10.45-4.39-14.7-10.45
				C2599.35,1817.99,2594.97,1812.7,2590.33,1808.06L2590.33,1808.06z M2597.29,1820.44L2597.29,1820.44c0,1.03,0.71,1.74,2.13,2.13
				c1.29,0.52,1.93,4,1.93,10.45l0,0c-1.81-3.74-3.87-6.52-6.19-8.32C2592.84,1822.9,2593.55,1821.48,2597.29,1820.44
				L2597.29,1820.44z M2356.29,984.25L2356.29,984.25c4.64-4.65,9.74-9.74,15.28-15.29c5.67-5.55,11.28-7.42,16.83-5.61l0,0
				c1.81,1.94,2.51,4.26,2.13,6.97c-0.52,2.84-0.77,6.13-0.77,9.87l0,0c7.48,4.65,16.05,5.81,25.73,3.48
				c9.8-2.32,19.34-3.48,28.63-3.48l0,0c14.83-1.94,28.5-2.39,41.01-1.36c12.51,0.9,25.27,1.36,38.3,1.36l0,0v4.06
				c16.76,0,33.72,0,50.87,0s33.14-0.9,47.97-2.71l0,0c0-0.9-0.45-1.35-1.35-1.35c-0.9,0-0.45,0,1.35,0l0,0
				c72.47,0,135.4,3.23,188.78,9.68c53.38,6.58,100.97,19.16,142.75,37.75l0,0c1.81,1.81,2.26,3.42,1.35,4.84
				c-0.9,1.42-1.8,1.16-2.71-0.77l0,0c0,2.84,0,4.26,0,4.26l0,0c0,1.81,0,2.26,0,1.35c0-0.9-0.97-0.45-2.9,1.36l0,0
				c0,3.74,1.42,7.03,4.26,9.87l0,0c0,3.61-0.71,3.81-2.13,0.58c-1.42-3.23-2.58-3.42-3.48-0.58l0,0c0,4.64,1.42,7.16,4.26,7.55
				c2.71,0.52,4.58,1.68,5.61,3.48l0,0c1.81,0,2.26,0.97,1.35,2.9c-0.9,1.81-1.35,3.61-1.35,5.42l0,0c1.81,1.03,2.97,0.58,3.48-1.36
				c0.39-1.81,0.58-2.26,0.58-1.36l0,0v8.32c0,0-0.45-0.45-1.35-1.35l0,0c0,9.29,0,23.49,0,42.58c0,18.97-1.42,33.1-4.26,42.39l0,0
				c-1.81,7.48-2,13.1-0.58,16.84c1.42,3.61-0.71,7.29-6.38,11.03l0,0c0-0.9,2.84-2.06,8.51-3.48c5.54-1.42,11.54-2.77,17.99-4.06
				c6.58-1.42,12.38-2.58,17.41-3.48c5.16-1.03,7.29-1.55,6.38-1.55l0,0c-1.93,0-5.93,0.52-11.99,1.55
				c-5.93,0.9-12.38,2.06-19.34,3.48c-6.96,1.29-13.28,2.9-18.96,4.84c-5.54,1.81-8.32,3.16-8.32,4.06l0,0
				c-2.71,0-4.58,0.26-5.61,0.77c-0.9,0.52-2.26-0.19-4.06-2.13l0,0c0,1.94-2.13,3.81-6.38,5.61c-4.13,1.81-8.77,3.42-13.93,4.84
				c-5.03,1.42-10.32,2.58-15.86,3.48c-5.67,0.9-9.86,0.9-12.57,0l0,0c-7.48,0-14.7,1.16-21.66,3.48
				c-6.96,2.32-13.67,2.58-20.12,0.77l0,0c-1.93,0-3.35-0.26-4.26-0.77c-0.9-0.39-2.26-0.58-4.06-0.58l0,0
				c-4.64-1.94-9.09-2.19-13.35-0.77c-4.13,1.42-8.51,2.13-13.15,2.13l0,0c-4.64-1.94-6.96-2.39-6.96-1.36l0,0
				c-10.19,2.71-22.5,4.32-36.94,4.84c-14.44,0.39-29.98,0.58-46.62,0.58c-16.76,0-33.98,0-51.64,0c-17.54,0-33.79,1.42-48.74,4.26
				l0,0c-2.71,1.81-7.54,2.26-14.51,1.36c-6.96-0.9-13.73-0.45-20.31,1.35l0,0c-1.81,0-3.61,0.97-5.42,2.9
				c-1.93,1.81-4.26,3.68-6.96,5.61l0,0c-6.58,1.81-13.8,2.45-21.66,1.94c-7.87-0.39-15.99-0.58-24.37-0.58l0,0
				c-14.83,0.9-29.66,2.26-44.49,4.07c-14.96,1.94-30.05,4.06-45.26,6.39c-15.34,2.32-30.95,3.68-46.81,4.07
				c-15.73,0.52-31.46-0.13-47.2-1.94l0,0c12.89-6.58,25.66-10.07,38.3-10.45c12.51-0.52,25.27-2.64,38.3-6.39l0,0
				c-11.22,0.9-30.05,2.06-56.48,3.48c-26.43,1.42-53.58,3.03-81.43,4.84l0,0c-32.5,2.84-67.31,5.16-104.45,6.97l0,0
				c-4.64,0-7.41,0.97-8.32,2.9l0,0c-1.03,1.81-0.39,4.13,1.93,6.97c2.32,2.71,8.12,6.39,17.41,11.03l0,0
				c29.79,21.42,56.29,45.17,79.5,71.23c23.21,25.94,45.45,51.49,66.73,76.65l0,0c29.79,29.68,58.8,60.78,87.04,93.3
				c28.37,32.52,57.9,62.71,88.59,90.59l0,0c17.54,26.97,35.85,52.52,54.93,76.65c19.08,24.13,39.72,48.26,61.9,72.39l0,0
				c35.33,42.84,68.09,86.97,98.26,132.4c30.17,45.55,60.09,90.65,89.75,135.3l0,0c8.38,12,17.21,27.29,26.5,45.87l0,0
				c3.74,4.64,7.48,11.16,11.22,19.55c3.74,8.39,6.96,16.32,9.67,23.81l0,0c3.74,1.81,6.77,3.16,9.09,4.06
				c2.32,0.9,3.03,3.23,2.13,6.97l0,0c11.09,15.87,20.37,31.42,27.85,46.65c7.35,15.36,15.22,30.97,23.6,46.84l0,0
				c-6.45-6.58-11.28-14.52-14.51-23.81c-3.35-9.29-8.7-16.71-16.05-22.26l0,0c-1.93-9.29-6.12-16.71-12.57-22.26
				c-6.45-5.55-10.64-13.49-12.57-23.81l0,0c-7.35-4.65-12.7-11.36-16.05-20.13c-3.22-8.77-8.51-16.45-15.86-23.03l0,0
				c1.8-5.55,1.29-8.58-1.55-9.1c-2.71-0.39-4.06-2.45-4.06-6.19l0,0c0.9-0.9,1.35,0,1.35,2.71l0,0c1.8-4.65,1.8-6.45,0-5.42
				c-1.8,0.9-3.68,0.39-5.61-1.55l0,0c1.93-0.9,0.58-2.71-4.06-5.42c-4.64-2.84-6.96-5.68-6.96-8.52l0,0
				c-4.64,1.94-5.35,3.61-2.13,5.03c3.22,1.29,5.29,2.9,6.19,4.84l0,0c-10.19-13.03-19.21-25.62-27.08-37.75
				c-7.87-12-16.96-23.62-27.27-34.84l0,0c7.48,11.23,14.44,22.2,20.89,32.91c6.58,10.58,12.19,23.36,16.83,38.33l0,0
				c-2.84,0-4.26-1.87-4.26-5.61c0-3.74,0-4.71,0-2.9l0,0c-1.81,1.03-2.51,0.58-2.13-1.35c0.52-1.81,0.77-5.03,0.77-9.68l0,0
				c-3.74,0-7.22-3.94-10.44-11.81c-3.22-8-7.61-11.03-13.15-9.1l0,0c-1.03-1.94-1.29-2.64-0.77-2.13c0.52,0.52,1.68-0.19,3.48-2.13
				l0,0c-7.48-0.9-11.67-3.68-12.57-8.32l0,0c0.9-0.9,1.87-0.45,2.9,1.35c0.9,1.94,1.8,3.81,2.71,5.61l0,0
				c0-5.55-2.77-9.49-8.32-11.81c-5.54-2.32-6.96-6.77-4.26-13.36l0,0c-2.71,0-4.58-1.35-5.61-4.06l0,0
				c-15.73-18.58-31.72-38.78-47.97-60.59c-16.25-21.94-32.24-43.55-47.97-64.84l0,0c9.28,25.03,23.21,44.97,41.78,59.81l0,0
				c0.9,1.94,1.8,3.1,2.71,3.48c0.9,0.52,0.45,1.68-1.35,3.48l0,0c3.74,0,7.67,3.29,11.8,9.87c4.13,6.45,7.16,12,9.09,16.65l0,0
				c0,1.94-0.45,3.1-1.35,3.48c-1.03,0.52-0.58,0.77,1.35,0.77l0,0c-1.93,1.81-4.06,1.1-6.38-2.13c-2.32-3.23-4.84-6.71-7.54-10.45
				l0,0c8.38,13.03,16.7,24.91,24.95,35.62c8.38,10.58,16.76,22.39,25.14,35.42l0,0c-8.38-0.9-14.18-5.55-17.41-13.94
				c-3.22-8.39-8.12-13.48-14.7-15.29l0,0c0-0.9,0.52-1.16,1.55-0.77c0.9,0.52,1.35,0.32,1.35-0.58l0,0
				c-1.93-3.74-4.06-6.78-6.38-9.1c-2.32-2.32-5.29-5.81-8.9-10.45l0,0c-4.64-4.65-8.64-11.36-11.99-20.13
				c-3.22-8.9-7.61-13.36-13.15-13.36l0,0c4.64-1.81,5.09-2.52,1.35-2.13c-3.74,0.52-5.61-0.65-5.61-3.48l0,0
				c0-1.81,0.71-2.26,2.13-1.35c1.42,0.9,1.68,1.87,0.77,2.9l0,0c-1.93-2.84-5.87-6.32-11.8-10.45c-6.06-4.26-10.51-9.61-13.35-16.07
				l0,0c0.9-4.65,1.87-5.81,2.9-3.48c0.9,2.32,1.35,3.94,1.35,4.84l0,0c0-7.49-1.87-10.71-5.61-9.68c-3.74,0.9-4.64-1.42-2.71-6.97
				l0,0c0.9-1.03,1.55-0.58,1.93,1.36c0.52,1.81,1.68,3.68,3.48,5.61l0,0c-1.81-3.74-4.58-7.03-8.32-9.87
				c-3.74-2.71-7.41-5.23-11.03-7.55c-3.74-2.32-6.77-5.36-9.09-9.1c-2.32-3.74-3.03-8.39-2.13-13.94l0,0c-1.81,0-1.8,1.16,0,3.48
				c1.81,2.32,1.81,3.48,0,3.48l0,0c-6.45-3.74-9.48-7.94-9.09-12.58c0.52-4.65-1.55-7.42-6.19-8.32l0,0c0-1.94,0.71-2.39,2.13-1.36
				c1.29,0.9,2.9,1.36,4.84,1.36l0,0c0-1.94-0.71-2.64-2.13-2.13c-1.42,0.52-2.13-1.1-2.13-4.84l0,0c-1.81-0.9-2.71-0.45-2.71,1.35
				c0,1.81-0.45,2.71-1.35,2.71l0,0c-5.67-3.61-12.19-8.26-19.54-13.94l0,0c3.74-3.61,6.06-3.81,6.96-0.58
				c0.9,3.22,2.26,4.84,4.06,4.84l0,0c-2.71-9.29-9.16-17.16-19.34-23.62l0,0c4.64,7.36,9.74,11.03,15.28,11.03l0,0
				c-4.64,2.84-9.54,1.23-14.7-4.84c-5.03-6.07-8.51-12.32-10.44-18.78l0,0c1.93,0,2.9,1.36,2.9,4.07c0,2.84,0.9,4.26,2.71,4.26l0,0
				c0-4.65-0.71-7.68-2.13-9.1c-1.42-1.42-2.58-3.03-3.48-4.84l0,0c-1.81,0-2.26,0.9-1.35,2.71c0.9,1.94,0.45,3.81-1.35,5.61l0,0
				c-1.93-7.36-6.58-13.87-13.93-19.55l0,0c0-1.81,0.9-2,2.71-0.58c1.93,1.42,2.9,1.16,2.9-0.77l0,0c-1.03-1.81-2.9-3.16-5.61-4.07
				l0,0c0,0.9,0.19,1.36,0.58,1.36c0.52,0,0.32,0.9-0.58,2.71l0,0c-13.93-12-28.11-26.65-42.55-43.94
				c-14.31-17.16-26.63-34.58-36.94-52.26l0,0c-4.64-1.81-8.77-5.29-12.38-10.45c-3.74-5.03-6.58-9.87-8.51-14.52l0,0
				c-4.64-7.48-10.45-14.26-17.41-20.32c-6.96-5.94-10.44-12.65-10.44-20.13l0,0c4.64,5.55,8.38,11.36,11.22,17.42
				c2.84,6.06,7.48,10,13.93,11.81l0,0c0,1.94-0.26,2.65-0.77,2.13c-0.39-0.52-0.58,0.19-0.58,2.13l0,0
				c6.45,1.81,10.83,5.74,13.15,11.81c2.32,6.07,6.77,9.1,13.35,9.1l0,0c-13.02-18.58-29.08-38.13-48.16-58.65
				c-18.96-20.39-34.95-38.97-47.97-55.75l0,0c7.35,2.84,13.35,7.74,17.99,14.71c4.64,6.97,12.57,14.65,23.79,23.03l0,0
				c30.56,39.87,61.19,78.2,91.88,114.98c30.69,36.65,63.64,74.97,98.84,114.98l0,0c0-4.65-1.35-6.97-4.06-6.97l0,0
				c0-0.9,0.45-1.36,1.35-1.36l0,0c0.9,0,1.81,0.45,2.71,1.36l0,0c-3.74-8.39-8.83-12.84-15.28-13.36
				c-6.45-0.39-10.64-4.77-12.57-13.16l0,0c1.93-1.81,3.09-1.36,3.48,1.36c0.52,2.84,2.13,5.16,4.84,6.97l0,0
				c-29.66-38.07-58.87-74.78-87.62-110.14c-28.76-35.23-58.03-70.52-87.81-105.88l0,0c7.48,5.55,14.25,11.61,20.31,18.2
				c5.93,6.45,12.64,12.45,20.12,18l0,0c-26.95-35.23-55.06-66.59-84.33-94.07c-29.14-27.36-60.48-55.88-94-85.56l0,0
				c0,0-1.35,1.36-4.06,4.07l0,0c0-3.74-2.77-6.52-8.32-8.32l0,0c-1.03,4.65,1.03,8.84,6.19,12.58c5.16,3.74,9.54,6.97,13.15,9.68
				l0,0c-1.81,1.94-3.61,3.1-5.42,3.48c-1.93,0.52-2.9,0.32-2.9-0.58l0,0c2.84,7.35,7.48,13.61,13.93,18.77
				c6.58,5.03,13.54,11.29,20.89,18.78l0,0c1.93,0.9,2.9,0.45,2.9-1.36c0-1.94,0.45-2.39,1.35-1.36l0,0c0,3.61,3.03,8.71,9.09,15.29
				c5.93,6.45,11.22,9.23,15.86,8.32l0,0c-0.9,0-1.81-1.16-2.71-3.48c-0.9-2.32-1.81-3.94-2.71-4.84l0,0
				c2.71,1.81,7.09,5.29,13.15,10.45c6.06,5.03,11.41,11.74,16.05,20.13l0,0c-1.93-1.81-4.26-4.13-6.96-6.97
				c-2.84-2.71-4.71-5.94-5.61-9.68l0,0c-1.81,6.45,0.52,11.81,6.96,16.07c6.45,4.13,8.77,8.52,6.96,13.16l0,0
				c7.48,3.74,13.28,9.1,17.41,16.07c4.13,6.97,9.03,12.78,14.7,17.42l0,0c-1.93,3.74-4.51,3.74-7.74,0
				c-3.22-3.74-4.38-7.03-3.48-9.87l0,0c-6.45-1.81-12.51-6.19-18.18-13.16c-5.54-6.97-12.51-13.23-20.89-18.78l0,0
				c1.93,7.35,6.58,12.9,13.93,16.65c7.48,3.74,11.22,8.84,11.22,15.29l0,0c-5.54-1.81-8.32-4.58-8.32-8.32l0,0
				c-1.93,2.84-1.23,6.58,2.13,11.23c3.22,4.65,7.16,9.29,11.8,13.94l0,0c0,0.9,0.45,1.36,1.35,1.36c0.9,0,0.45,0.9-1.35,2.71l0,0
				c8.38,4.65,16.05,11.87,23.02,21.68c6.96,9.81,15.54,19.81,25.73,30l0,0c-3.74,1.81-7.48,0.39-11.22-4.26
				c-3.74-4.64-6.51-9.29-8.32-13.94l0,0c-2.84-3.74-5.87-7.68-9.09-11.81c-3.22-4.13-5.74-7.16-7.54-9.1l0,0c-2.84,0-5.67,0-8.51,0
				c-2.71,0-3.16-2.32-1.35-6.97l0,0c-15.73-10.19-30.11-22-43.13-35.42c-13.02-13.55-28.82-28.2-47.39-43.94l0,0
				c14.83,8.39,29.01,19.29,42.55,32.71c13.41,13.42,26.63,24.78,39.65,34.07l0,0c0-2.71-1.42-4.32-4.26-4.84
				c-2.71-0.39-4.06-2.9-4.06-7.55l0,0c-4.64-1.94-8.58-4.26-11.8-6.97c-3.35-2.84-5.03-6.58-5.03-11.23l0,0
				c-21.28-18.58-43.78-38.07-67.51-58.46c-23.6-20.52-48.42-40.07-74.47-58.65l0,0c4.64-3.74,8.38-3.29,11.22,1.36
				c2.71,4.65,6.38,7.48,11.03,8.52l0,0c-21.28-21.42-44.94-40.52-70.99-57.29c-26.05-16.65-51.13-36.58-75.24-59.81l0,0
				c-2.71,0-7.35,1.87-13.93,5.61c-6.45,3.61-13.41,7.55-20.89,11.81c-7.35,4.13-14.06,7.36-20.12,9.68s-9.99,1.61-11.8-2.13l0,0
				c-6.58,5.68-11.93,11.03-16.05,16.06c-4.26,5.16-8.7,10.52-13.35,16.07c-4.64,5.55-10.19,12.07-16.63,19.55
				c-6.45,7.36-15.28,16.65-26.5,27.87l0,0c16.76-25.16,33.72-46.52,50.87-64.07c17.15-17.68,34.11-38.13,50.87-61.36l0,0
				c-8.38,5.55-16.76,12.97-25.14,22.26c-8.38,9.29-16.25,18.32-23.6,27.1c-7.48,8.9-15.15,16.84-23.02,23.81
				c-7.87,6.97-15.99,11.81-24.37,14.52l0,0c0,1.94,0.45,2.9,1.35,2.9c0.9,0,1.87,0.45,2.9,1.36l0,0
				c-6.58,4.64-11.48,10.19-14.7,16.65c-3.22,6.58-6.71,12.19-10.45,16.84l0,0c-3.74-1.94-7.48-1.48-11.22,1.35
				c-3.61,2.84-7.09,6.58-10.44,11.23c-3.22,4.65-6.71,9.74-10.44,15.29c-3.61,5.55-7.29,9.74-11.03,12.58l0,0
				c0,2.71,1.35,2,4.06-2.13c2.84-4.26,4.71-7.29,5.61-9.1l0,0c0,10.19-2.32,15.1-6.96,14.71c-4.64-0.52-8.32,1.55-11.03,6.19l0,0
				c-1.93,4.65-1.48,5.55,1.35,2.71l0,0c0.9-0.9,1.81-2.26,2.71-4.06l0,0c1.93,4.64,0.77,7.87-3.48,9.68c-4.13,1.93-7.16,1.93-9.09,0
				l0,0c-7.35,13.03-14.96,23.94-22.82,32.71c-8,8.9-15.22,19.87-21.66,32.91l0,0c3.74,1.81,7.22-1.48,10.45-9.87
				c3.22-8.39,7.61-11.61,13.15-9.68l0,0c-25.02,33.42-48.68,66.84-70.99,100.27l0,0c4.64-13.03,11.61-25.36,20.89-36.97
				c9.28-11.61,18.12-24.39,26.5-38.33l0,0c-8.38,8.39-15.09,15.36-20.12,20.91c-5.16,5.68-10.96,16.39-17.41,32.13l0,0
				c0-4.64-1.42-7.42-4.26-8.32l0,0c-8.38,15.74-16.25,29.87-23.6,42.39c-7.48,12.65-16.31,25.42-26.5,38.33l0,0
				c0,1.94,0.45,2.45,1.35,1.55c0.9-1.03,1.81-1.55,2.71-1.55l0,0c-8.25,13.94-16.12,26.07-23.6,36.39
				c-7.48,10.19-14.89,21.81-22.24,34.84l0,0c3.74-10.32,9.74-19.61,17.99-27.87c8.38-8.39,14.89-19.1,19.54-32.13l0,0
				c-11.09,13.03-23.6,30.2-37.52,51.49c-13.93,21.42-27.85,43.29-41.78,65.62l0,0c13.93-5.55,27.85-12.97,41.78-22.26
				c13.93-9.29,28.05-19.55,42.36-30.78c14.44-11.1,29.08-21.74,43.91-31.94c14.83-10.32,30.17-19.16,46.04-26.52l0,0
				c-25.15,25.03-50.68,47.55-76.6,67.55c-26.05,20-51.58,39.29-76.6,57.88l0,0c-1.93,10.19-4.71,15.03-8.32,14.52
				c-3.74-0.39-6.58,3.1-8.51,10.45l0,0c-4.64,1.94-9.48,5.42-14.51,10.45c-5.16,5.16-9.09,4-11.8-3.48l0,0
				c-4.64,2.84-11.41,2.84-20.31,0c-8.77-2.71-18.5-5.94-29.21-9.68c-10.7-3.74-20.7-6.07-29.98-6.97c-9.28-0.9-15.8,1.87-19.54,8.32
				l0,0c-1.81,0.9-2.97,0-3.48-2.71c-0.39-2.84-0.58-2.84-0.58,0l0,0c-0.9-11.23,1.16-25.42,6.19-42.58
				c5.16-17.16,10.96-32.26,17.41-45.29l0,0c14.83-30.58,32.04-60.33,51.64-89.23c19.47-28.78,39.84-56.65,61.12-83.62
				c21.41-26.84,42.55-52.39,63.44-76.65c20.89-24.13,40.62-45.94,59.19-65.42l0,0c21.41-26.97,44.36-52.97,68.86-78.01
				c24.63-25.16,48.55-48.2,71.76-69.1c23.21-20.91,45.07-39.49,65.57-55.75c20.37-16.26,37.52-29.49,51.45-39.68l0,0
				c-3.74-3.74-6.96-9.29-9.67-16.65c-2.84-7.49-6.58-10.26-11.22-8.32l0,0c-1.81-3.74-0.9-6.32,2.71-7.74
				c3.74-1.42,6.06-3.03,6.96-4.84l0,0c4.64-7.48,6.51-10.97,5.61-10.45c-0.9,0.39-0.45-2.65,1.35-9.1l0,0
				c3.74-9.29,8.9-13.94,15.47-13.94c6.45,0,13.41,2.32,20.89,6.97c7.35,4.65,14.76,10.19,22.24,16.65
				c7.35,6.58,14.31,11.23,20.89,13.94l0,0c16.63-10.19,32.17-20.65,46.61-31.36c14.44-10.58,29.53-22.39,45.26-35.42l0,0
				c0-1.94-2.32-2.9-6.96-2.9l0,0c6.45-0.9,12.51-2.06,18.18-3.48c5.54-1.29,10.64-4.26,15.28-8.9l0,0
				c-4.64-1.94-8.38-2.45-11.22-1.55c-2.71,1.03-6.38,1.03-11.03,0l0,0c2.71-1.81,5.48-2.45,8.32-1.94c2.71,0.39,4.58-1.29,5.61-5.03
				l0,0c-21.41,1.94-43.71,1.74-66.92-0.58c-23.21-2.32-45.52-2.58-66.92-0.77l0,0c-4.64-2.71-9.48-4.32-14.51-4.84
				c-5.16-0.52-10.25-0.26-15.28,0.77c-5.16,0.9-9.8,1.35-13.93,1.35c-4.26,0-7.74-1.42-10.45-4.26l0,0
				c-21.41,0-41.84,2.13-61.32,6.39c-19.47,4.13-38.49,7.1-57.06,8.9l0,0c4.64-3.61,8.32-5.42,11.03-5.42c2.84,0,6.58-0.97,11.22-2.9
				l0,0c-8.38,0.9-17.47,2.52-27.27,4.84c-9.67,2.32-19.15,3.48-28.43,3.48l0,0c7.35-3.61,15.47-5.94,24.37-6.97
				c8.77-0.9,17.34-2.26,25.72-4.07l0,0c-18.57,0-37.14,1.61-55.71,4.84c-18.57,3.23-37.59,6.71-57.06,10.45l0,0
				c4.64-3.74,9.03-6.06,13.15-6.97c4.26-0.9,8.19-3.68,11.8-8.32l0,0c17.67-4.65,33.72-8.39,48.16-11.23
				c14.31-2.71,28.95-6.39,43.91-11.03l0,0c0.9,0,2.26,0.45,4.06,1.36l0,0c-1.81-1.94,0.52-2.9,6.96-2.9c6.58,0,9.86-0.9,9.86-2.71
				l0,0c24.11-1.81,49.84-4.58,77.18-8.32c27.47-3.74,51.84-7.94,73.11-12.58l0,0c39.07-3.74,78.98-8.13,119.73-13.16
				C2273.18,991.09,2314.51,987.09,2356.29,984.25L2356.29,984.25z M2005.42,1052.58L2005.42,1052.58
				c-7.48-7.36-12.12-6.39-13.93,2.9l0,0c2.71-1.94,5.03-2.45,6.96-1.55C2000.26,1054.97,2002.58,1054.51,2005.42,1052.58
				L2005.42,1052.58z M2502.51,992.77L2502.51,992.77c6.58,2.71,11.93,3.61,16.05,2.71c4.13-0.9,8.51,0.97,13.15,5.61l0,0
				c-7.35,0.9-14.06,0.9-20.12,0c-6.06-0.9-12.31,0.45-18.76,4.06l0,0c4.64,0,9.48-0.9,14.51-2.71c5.16-1.81,8.64-0.39,10.45,4.26
				l0,0c-12.9,1.81-25.85,2.45-38.88,1.94c-13.02-0.39-25.08,0.32-36.17,2.13l0,0c36.11,1.94,72.73,1.74,109.86-0.58
				c37.14-2.32,73.37-2.13,108.7,0.58l0,0c5.54-1.81,11.61-2,18.18-0.58c6.45,1.29,12.44,0.13,17.99-3.48l0,0
				c-13.93-1.03-28.56-3.16-43.91-6.39c-15.22-3.23-27.98-5.74-38.3-7.55l0,0c4.64,0,5.61-0.97,2.9-2.9l0,0
				c-20.5,1.94-40.23,2.39-59.19,1.36C2539.91,990.32,2521.08,990.83,2502.51,992.77L2502.51,992.77z M2523.4,1022L2523.4,1022
				c18.57,1.81,39.27,2.52,62.09,2.13c22.7-0.52,43.78-1.23,63.25-2.13l0,0c-6.45-3.74-13.15-5.36-20.12-4.84
				c-6.96,0.39-14.18,0.58-21.66,0.58l0,0c3.74,1.94,7.67,2.19,11.8,0.77c4.26-1.42,7.29-1.23,9.09,0.58l0,0
				c-15.73,1.94-32.88,2.45-51.45,1.55C2557.83,1019.61,2540.17,1020.06,2523.4,1022L2523.4,1022z M2517.8,1035.93L2517.8,1035.93
				c21.41-0.9,42.81,0,64.22,2.71c21.28,2.84,43.07,4.26,65.38,4.26l0,0c0-5.55,2.32-7.87,6.96-6.97c4.64,0.9,6.96-0.52,6.96-4.26
				l0,0c-4.64-1.81-10.9-2.52-18.76-2.13c-7.87,0.52-16.96-0.13-27.27-1.94l0,0c-8.25,0-15.41,0.19-21.47,0.58
				c-6.06,0.52-11.41,2.64-16.05,6.39l0,0c2.84-2.84,4.26-2.84,4.26,0l0,0c-9.28-1.94-19.73-2.9-31.33-2.9
				S2528.11,1033.09,2517.8,1035.93L2517.8,1035.93z M2703.09,1084.71v-2.9c1.8,1.94,3.22,2.9,4.26,2.9l0,0c11.99,0,24.05,0,36.17,0
				c11.99,0,23.6,0.45,34.82,1.35l0,0c1.81,0,4.58,0.26,8.32,0.77c3.74,0.39,6.51-0.32,8.32-2.13l0,0
				c-2.71-3.74-9.86-5.36-21.47-4.84c-11.61,0.39-19.73-1.74-24.37-6.39l0,0c5.55-0.9,11.09-1.35,16.64-1.35
				c5.54,0,10.64-0.9,15.28-2.71l0,0c-69.63-10.32-138.3-14.32-206-12c-67.83,2.32-135.14,4.9-201.93,7.74l0,0
				c-10.32,8.39-22.18,16.78-35.59,25.16c-13.41,8.26-27.34,16.84-41.78,25.74c-14.44,8.77-29.08,17.36-43.91,25.74
				c-14.83,8.39-27.79,16.26-38.88,23.62l0,0c32.5-1.81,66.8-4.58,102.9-8.32c36.23-3.74,72.73-7.42,109.48-11.03
				c36.62-3.74,72.79-7.23,108.51-10.45c35.72-3.36,69.38-5.03,100.97-5.03l0,0c9.28-6.45,20.89-9.42,34.82-8.9
				c13.93,0.39,25.98-3.1,36.17-10.45l0,0c-1.81-1.03-5.74-1.55-11.8-1.55c-6.06,0-9.99-1.36-11.8-4.07l0,0
				c18.57,0,35.53,0.45,50.87,1.36c15.34,0.9,31.33-1.87,47.97-8.32l0,0c-1.81,0-3.68-0.26-5.61-0.77c-1.81-0.39-2.71-1.55-2.71-3.48
				l0,0c0.9,0,2.32-1.36,4.25-4.07l0,0c-13.93-1.03-26.69-2-38.3-2.9C2727.08,1086.52,2715.22,1085.61,2703.09,1084.71
				L2703.09,1084.71L2703.09,1084.71z M2576.4,1015.03L2576.4,1015.03c2.71,1.81,6.38,2.71,11.02,2.71c4.64,0,8.38-0.9,11.22-2.71
				l0,0c-4.64-0.9-8.83-1.16-12.57-0.77C2582.33,1014.77,2579.11,1015.03,2576.4,1015.03L2576.4,1015.03z M2534.62,1042.9
				L2534.62,1042.9c5.54,0.9,10.19,0.9,13.93,0l0,0c-1.93,0-4.51-0.97-7.74-2.9C2537.59,1038.19,2535.53,1039.16,2534.62,1042.9
				L2534.62,1042.9z M2502.51,1035.93L2502.51,1035.93c1.93-0.9,4.97-0.19,9.09,2.13c4.13,2.32,5.29,1.16,3.48-3.48l0,0
				c-0.9,0.9-3.48,0.9-7.74,0C2503.22,1033.55,2501.61,1034,2502.51,1035.93L2502.51,1035.93z M2885.49,1186.33L2885.49,1186.33
				c-5.54-0.9-11.54-0.64-17.99,0.77c-6.58,1.42-12.64,1.16-18.18-0.77l0,0c0,1.03,0.45,1.55,1.35,1.55l0,0c0,0,0.45-0.52,1.35-1.55
				l0,0c-4.64-0.9-8.77-0.9-12.38,0c-3.74,1.03-7.93,0.58-12.57-1.36l0,0v4.26c-5.55,1.81-11.15,2.52-16.83,2.13
				c-5.55-0.52-10.64,0.65-15.28,3.48l0,0c10.19,1.81,18.57,2,25.15,0.58c6.45-1.42,13.41-1.61,20.89-0.58l0,0
				c1.81-2.84,2.71-5.68,2.71-8.52l0,0h1.35c-0.9,1.03-0.9,2,0,2.9l0,0v1.35c4.64,0,9.28,0.45,13.93,1.36
				c4.64,0.9,8.38,0.45,11.22-1.36l0,0c0,1.81,1.61,2.52,4.84,2.13C2878.27,1192.2,2881.75,1190.07,2885.49,1186.33L2885.49,1186.33z
				M2735.2,1189.23L2735.2,1189.23c17.54,0,32.82,0.45,45.84,1.35c13.02,0.9,25.6-0.52,37.72-4.26l0,0
				c-12.12-0.9-25.15-1.55-39.07-1.94C2765.76,1183.88,2750.93,1185.49,2735.2,1189.23L2735.2,1189.23z M2396.71,1046.96
				L2396.71,1046.96c4.64,1.03,8.83,1.29,12.57,0.77c3.74-0.52,5.61-1.68,5.61-3.48l0,0c-1.93,1.81-4.77,2.26-8.51,1.36
				C2402.77,1044.71,2399.55,1045.16,2396.71,1046.96L2396.71,1046.96z M2391.1,1053.93l2.9-1.35c-1.03-2.71-2.71-4.06-5.03-4.06
				c-2.32,0-3.48,1.36-3.48,4.06l0,0c1.93,0,3.09-0.71,3.48-2.13c0.52-1.29,1.68-0.58,3.48,2.13l0,0L2391.1,1053.93L2391.1,1053.93z
				M2690.52,1197.56L2690.52,1197.56c4.64,1.81,7.93,2.52,9.86,2.13c1.8-0.52,3.61-0.77,5.42-0.77l0,0c0-2.71,0-4.06,0-4.06l0,0
				c-1.81,1.81-3.87,1.81-6.19,0C2697.29,1192.91,2694.26,1193.82,2690.52,1197.56L2690.52,1197.56z M1942.75,1059.55
				L1942.75,1059.55c1.81,0.9,4.84,0.71,9.09-0.58c4.13-1.42,6.19-2.58,6.19-3.48l0,0c-1.81,0.9-3.87,1.35-6.19,1.35
				S1946.49,1057.74,1942.75,1059.55L1942.75,1059.55z M2101.55,1231.04L2101.55,1231.04c0,0-1.68,3.03-5.03,9.1
				c-3.22,5.94-6.45,12.39-9.67,19.36c-3.22,6.97-6.71,13.48-10.45,19.55s-6.51,9.55-8.32,10.45l0,0c1.81-2.71,5.74-8.52,11.8-17.42
				c6.06-8.77,11.41-17.1,16.05-24.97c4.64-8,8.12-14.07,10.44-18.19C2108.7,1224.79,2107.09,1225.5,2101.55,1231.04L2101.55,1231.04
				z M2129.4,1320.28L2129.4,1320.28c-3.74-1.03-7.03-2.19-9.86-3.48c-2.71-1.42-5.03-3.1-6.96-5.03l0,0
				c1.93,1.94,4.26,4.26,6.96,6.97C2122.37,1321.57,2125.66,1322.08,2129.4,1320.28L2129.4,1320.28z M2133.46,1324.34
				L2133.46,1324.34c0.9,1.94,1.61,3.55,2.13,4.84c0.52,1.42,3.09,1.23,7.74-0.58l0,0c-4.64-0.9-7.22-2.06-7.74-3.48
				C2135.07,1323.7,2134.36,1323.44,2133.46,1324.34L2133.46,1324.34z M2172.53,1339.63L2172.53,1339.63c0,1.03,1.16,2.19,3.48,3.48
				c2.32,1.42,3.93,1.68,4.84,0.77l0,0c-0.9,0-2.06-1.16-3.48-3.48C2175.95,1338.08,2174.34,1337.83,2172.53,1339.63L2172.53,1339.63
				z M2306.19,1410.86L2306.19,1410.86c1.8-1.94,0.9-3.61-2.71-5.03c-3.74-1.29-6.06-1.94-6.96-1.94l0,0
				c1.81,1.81,3.42,2.97,4.84,3.48C2302.77,1407.77,2304.38,1408.93,2306.19,1410.86L2306.19,1410.86z M2350.68,1449.77
				L2350.68,1449.77c7.48,8.39,13.99,16.78,19.54,25.16c5.54,8.39,12.06,14.9,19.54,19.55l0,0c10.19,10.19,19.92,20.13,29.21,29.81
				c9.28,9.81,17.21,18.45,23.79,25.94l0,0c6.45,10.19,12.44,19.23,17.99,27.1c5.54,7.87,13.48,15.55,23.79,23.03l0,0
				c8.25,12,16.57,23.36,24.95,34.07c8.38,10.71,17.21,20.26,26.5,28.65l0,0c-29.66-44.65-64.22-88.07-103.67-130.27
				c-39.46-42.33-80.59-82.97-123.4-121.95l0,0c4.64,8.26,10.96,14.97,18.96,20.13C2335.72,1436.16,2343.33,1442.42,2350.68,1449.77
				L2350.68,1449.77z M2389.75,1473.58L2389.75,1473.58c-0.9,0-2.32-1.16-4.26-3.48c-1.81-2.32-4.58-4-8.32-5.03l0,0
				c0,2.84,2.13,5.16,6.38,6.97C2387.68,1473.97,2389.75,1474.48,2389.75,1473.58L2389.75,1473.58z M2402.32,1485.97L2402.32,1485.97
				c-1.93,0-3.55-1.35-4.84-4.06c-1.42-2.84-4-4.26-7.74-4.26l0,0c3.74,1.94,5.61,4.06,5.61,6.39
				C2395.36,1486.35,2397.68,1487,2402.32,1485.97L2402.32,1485.97z M2226.89,1403.9L2226.89,1403.9c-2.84-1.03-4.51-3.36-5.03-6.97
				c-0.39-3.74-2.9-4.26-7.54-1.55l0,0c1.81,1.94,3.87,3.81,6.19,5.61C2222.82,1402.93,2224.95,1403.9,2226.89,1403.9L2226.89,1403.9
				z M2425.92,1508.42L2425.92,1508.42c-1.81,3.61-3.67,3.81-5.61,0.58c-1.81-3.23-4.13-5.29-6.96-6.19l0,0
				c2.84,0,5.16,0.9,6.96,2.71C2422.24,1507.45,2424.11,1508.42,2425.92,1508.42L2425.92,1508.42z M2431.53,1519.45L2431.53,1519.45
				c-2.84-6.45-4.71-8.07-5.61-4.84C2425.02,1517.84,2426.89,1519.45,2431.53,1519.45L2431.53,1519.45z M2279.69,1454.03
				L2279.69,1454.03c-3.74-4.65-9.09-10.26-16.05-16.84c-6.96-6.45-13.67-12-20.12-16.65l0,0c6.45,6.45,12.96,12.52,19.54,18.2
				C2269.5,1444.29,2275.05,1449.38,2279.69,1454.03L2279.69,1454.03z M2473.31,1566.88L2473.31,1566.88
				c-15.73-13.94-28.76-28.32-39.07-43.16l0,0c-1.8-1.94-1.8-2.19,0-0.77c1.93,1.42,3.8,2.13,5.61,2.13l0,0
				c4.64,7.48,10.25,14.19,16.83,20.13C2463.12,1551.26,2468.67,1558.49,2473.31,1566.88L2473.31,1566.88z M2481.62,1579.46
				L2481.62,1579.46c-1.81-1.94-3.16-4.52-4.06-7.74c-1.03-3.23-2.45-3.94-4.26-2.13l0,0c1.81,1.03,3.22,2.9,4.26,5.61
				C2478.47,1578.04,2479.82,1579.46,2481.62,1579.46L2481.62,1579.46z M2548.55,1679.72L2548.55,1679.72
				c-1.93,0-3.55-2.06-4.84-6.19c-1.42-4.26-4-6.39-7.74-6.39l0,0c3.74,3.74,6.32,6.77,7.74,9.1
				C2545,1678.56,2546.61,1679.72,2548.55,1679.72L2548.55,1679.72z M2586.07,1720.18L2586.07,1720.18
				c-1.81-1.81-3.16-4.13-4.06-6.97c-1.03-2.84-2.45-3.29-4.26-1.36l0,0c0,0.9,0.9,2.97,2.71,6.19
				C2582.4,1721.28,2584.27,1721.98,2586.07,1720.18L2586.07,1720.18z M2630.75,1812.12L2630.75,1812.12c-2.84-1.81-5.16-1.81-6.96,0
				l0,0c1.81,0.9,3.61,2.32,5.42,4.26c1.93,1.81,3.8,1.81,5.61,0l0,0c-1.81-1.94-3.68-4.52-5.61-7.74c-1.81-3.23-4.13-4.84-6.96-4.84
				l0,0c1.03,1.81,2.19,3.23,3.48,4.26C2627.14,1808.96,2628.82,1810.31,2630.75,1812.12L2630.75,1812.12z M2693.42,1905.61
				L2693.42,1905.61c-1.93-1.94-4.26-4.77-6.96-8.52c-2.84-3.61-4.71-4.97-5.61-4.07l0,0c0.9,1.81,2.77,4.32,5.61,7.55
				C2689.17,1903.93,2691.49,1905.61,2693.42,1905.61L2693.42,1905.61z M2669.63,1088.77L2669.63,1088.77
				c-0.9,2.84-2.77,3.81-5.61,2.9c-2.71-0.9-5.03-1.36-6.96-1.36l0,0c1.93-1.03,4.06-1.29,6.38-0.77
				C2665.76,1090.07,2667.83,1089.81,2669.63,1088.77L2669.63,1088.77z M2548.55,1088.77L2548.55,1088.77
				c14.83-1.81,31.79-2.97,50.87-3.48c18.96-0.39,34.95-0.13,47.97,0.77l0,0c9.28,1.81,10.7,2.97,4.26,3.48
				c-6.58,0.52-12.19,0.77-16.83,0.77l0,0c-13.93,0-28.05,0-42.36,0C2578.01,1090.32,2563.38,1089.81,2548.55,1088.77
				L2548.55,1088.77z M2793.62,1211.49L2793.62,1211.49c-10.19,6.45-24.11,9.94-41.78,10.45c-17.67,0.52-33.91,1.23-48.74,2.13l0,0
				c-14.83,3.74-29.66,5.81-44.49,6.19c-14.96,0.52-29.85,1.23-44.68,2.13l0,0c13.02-5.55,27.66-9.48,43.91-11.81
				c16.25-2.32,32.5-4.19,48.74-5.61c16.25-1.42,32.04-2.13,47.39-2.13C2769.31,1212.85,2782.53,1212.4,2793.62,1211.49
				L2793.62,1211.49z M1836.94,1059.55L1836.94,1059.55c0,0.9-1.87,2.06-5.61,3.48s-7.48,2.58-11.22,3.48
				c-3.74,0.9-5.8,1.16-6.19,0.77c-0.52-0.52,2.97-1.68,10.44-3.48l0,0c0.9,0,2.77-0.45,5.61-1.35
				C1832.69,1061.42,1835.01,1060.45,1836.94,1059.55L1836.94,1059.55z M2329.79,1466.61L2329.79,1466.61
				c22.31,12,40.43,27.29,54.35,45.87l0,0c-8.38-4.64-17.21-11.61-26.5-20.9C2348.36,1482.29,2339.07,1473.97,2329.79,1466.61
				L2329.79,1466.61z M2375.82,1550.23L2375.82,1550.23c1.81-1.03,3.42,0.32,4.84,4.06c1.42,3.74,3.03,6.52,4.84,8.32l0,0
				c-1.81,1.94-3.42,0.77-4.84-3.48C2379.24,1555,2377.63,1552.04,2375.82,1550.23L2375.82,1550.23z M1916.25,1433.12
				L1916.25,1433.12c0,5.55-2.77,10.19-8.32,13.94c-5.54,3.74-9.28,8.39-11.22,13.94l0,0c0-4.65,2.77-9.29,8.32-13.94
				C1910.7,1442.42,1914.44,1437.77,1916.25,1433.12L1916.25,1433.12z M2398.07,1578.1L2398.07,1578.1
				c20.5,16.65,37.46,36.58,50.87,59.81c13.41,23.23,29.4,44.13,47.97,62.71l0,0c-18.57-16.65-35.46-36.58-50.68-59.81
				C2430.88,1617.59,2414.83,1596.68,2398.07,1578.1L2398.07,1578.1z M2367.5,1590.49L2367.5,1590.49c0.9-1.81,2.77-0.64,5.61,3.48
				c2.71,4.26,5.03,6.39,6.96,6.39l0,0c0,5.55-1.68,5.55-5.03,0C2371.82,1594.81,2369.31,1591.52,2367.5,1590.49L2367.5,1590.49z
				M2510.83,1720.18L2510.83,1720.18c4.64-1.81,7.93-1.1,9.86,2.13c1.8,3.23,4.13,8.07,6.96,14.52l0,0
				c-2.84-3.61-5.42-7.1-7.74-10.45C2517.6,1723.15,2514.57,1721.08,2510.83,1720.18L2510.83,1720.18z M2584.72,1808.06
				L2584.72,1808.06c-0.9-1.03-0.64-1.03,0.77,0c1.29,0.9,2.64,2.06,4.06,3.48c1.42,1.29,2.39,2.45,2.9,3.48
				c0.39,0.9-0.32,0.39-2.13-1.55l0,0c-1.93,1.94-3.09,1.74-3.48-0.58C2586.33,1810.57,2585.62,1808.96,2584.72,1808.06
				L2584.72,1808.06z M2605.61,1833.03L2605.61,1833.03c-1.81-1.81-1.35-2,1.35-0.58c2.84,1.29,5.16,1.48,6.96,0.58l0,0
				c-1.81,2.84-3.42,3.55-4.84,2.13C2607.67,1833.74,2606.51,1833.03,2605.61,1833.03L2605.61,1833.03z M2618.18,1838.64
				L2618.18,1838.64c0-1.81,0.71-1.55,2.13,0.77c1.29,2.32,1.93,4.39,1.93,6.19l0,0C2619.53,1843.8,2618.18,1841.48,2618.18,1838.64
				L2618.18,1838.64z M2630.75,1858.19L2630.75,1858.19c6.45,2.71,12.44,9.23,17.99,19.55c5.54,10.19,12.06,18.97,19.54,26.32l0,0
				c-7.48-5.55-13.99-13.42-19.54-23.61C2643.2,1870.25,2637.2,1862.83,2630.75,1858.19L2630.75,1858.19z M2590.33,1845.61
				L2590.33,1845.61c1.81,0,3.87,1.61,6.19,4.84c2.32,3.23,4.45,6.26,6.38,9.1l0,0c-1.93,0-4.06-1.87-6.38-5.61
				C2594.2,1850.19,2592.13,1847.41,2590.33,1845.61L2590.33,1845.61z M2668.28,1908.32L2668.28,1908.32c4.64,0,8.12,2.58,10.44,7.74
				c2.32,5.03,4.9,10.84,7.74,17.42l0,0c-4.64-1.94-8.12-5.94-10.45-12C2673.69,1915.55,2671.11,1911.16,2668.28,1908.32
				L2668.28,1908.32z M2698.84,1943.16L2698.84,1943.16c-4.64-0.9-6.96-2.32-6.96-4.26
				C2691.88,1937.1,2694.2,1938.52,2698.84,1943.16L2698.84,1943.16z M2705.8,1958.46L2705.8,1958.46c1.03-1.81,3.35-0.65,6.96,3.48
				c3.74,4.26,4.71,7.29,2.9,9.1l0,0c-1.93-1.81-3.55-3.68-4.84-5.61C2709.41,1963.62,2707.74,1961.29,2705.8,1958.46L2705.8,1958.46
				z"/>
		</g>
	</g>
	</svg>

