<?xml version="1.0" encoding="utf-8"?>
<!-- Generator: Adobe Illustrator 22.1.0, SVG Export Plug-In . SVG Version: 6.00 Build 0)  -->
<svg version="1.1" id="Layer_1" xmlns="http://www.w3.org/2000/svg" xmlns:xlink="http://www.w3.org/1999/xlink" x="0px" y="0px"
	 viewBox="0 0 660 258" style="enable-background:new 0 0 660 258;" xml:space="preserve">
<style type="text/css">
	.st0{fill:#FFFFFF;}
	.st1{fill:#9C9B9B;}
</style>
<g>
	<g>
		<path class="st0" d="M203.4,176.3c0,3.7-2.1,6.3-5.5,8.2l-76.3,44.1c-1.9,1.2-3.5,1.9-5.7,1.9c-2,0-3.6-0.6-5.3-1.7l-76.1-43.9
			c-3.8-1.9-6.1-4.4-6.2-8.3c0,0,0-91.4,0-91.5c0-3.8,2.3-6.6,5.7-8.3l76.6-44.1c1.9-1.2,3.3-1.8,5.3-1.8c4.9,0,8.8,3.9,8.8,8.8
			c0,3.7-2.2,6.4-5.5,8.1L45.7,90.2v81l70.1,40.5l70.1-40.5v-81l-35.6-20.5l-69.9,40.4l0,31.8l145.3-85.6c1.7-1.1,3.3-1.8,5.3-1.8
			c4.9,0,8.8,3.9,8.8,8.8c0,3.7-2.1,6.3-5.5,8.1L89.7,156.8l26.4,15.3l106.7-62.1c1.2-0.7,2.4-0.9,3.8-0.9c4.9,0,8.8,3.9,8.8,8.8
			c0,3.7-2.1,6.4-5.5,8.1l-94.2,55.2c0,0-13.9,8-13.9,8c-1.9,1.2-3.5,2-5.7,2c-2,0-3.5-0.7-5.3-1.8l-20.4-11.8l-22.1-12.7
			c-3.5-1.8-5.7-4.5-5.7-8.3c0-0.3,0.1-51.4,0.1-51.4s0-0.5,0-0.6c0-3.7,2.8-6.5,6.4-8.3l75.3-43.6c2.2-1.4,3.6-2.1,5.9-2.1
			c2.1,0,3.7,0.7,5.7,2l41.5,24.2c3.5,1.2,5.9,4.5,5.9,8.4c0,0.3-0.1,0.7-0.1,1C203.4,86.1,203.4,176,203.4,176.3"/>
		<polygon class="st1" points="186,151.7 186,160.9 203.4,150.7 203.4,141.5 		"/>
		<polyline class="st1" points="169.1,80.5 176.9,85 194.2,74.8 186.4,70.3 		"/>
		<polygon class="st1" points="186,100 186,109.2 203.4,98.9 203.4,89.7 		"/>
		<polyline class="st1" points="203.4,121.2 203.4,112 186,122.2 186,131.3 		"/>
	</g>
	<path class="st0" d="M426.3,98.1c-17.7,0-32.3,12.3-32.3,30.7c0,0.1,0,0.1,0,0.2l0,0l0,62.5c10.2,0,18.4-8.1,18.6-18.3l0-16.3
		c4.2,1.8,8.8,2.7,13.7,2.7c17.3,0,32-12.3,32-30.8C458.3,110.4,443.6,98.1,426.3,98.1z M426.3,143.9c-7.6,0-14.4-5.9-14.4-15.1
		c0-9.1,6.9-15.1,14.4-15.1c7.2,0,14.1,6,14.1,15.1C440.4,138,433.5,143.9,426.3,143.9z"/>
	<path class="st0" d="M331.5,129c-0.3-19.1-13.6-30.9-30.1-30.9c-17,0-30.9,12.6-30.9,30.9c0,18.5,13.9,30.9,30.8,30.9
		c11.4,0,20.7-4.3,26.3-13.1l-13.9-8.5c-3.1,5.7-8.1,6.7-12.4,6.7c-6.3,0-11-4.3-12.6-11.3h42.8V129z M289.1,122.4
		c1.7-5.9,7.1-9.2,12.3-9.2c5.3,0,10,2.9,11.7,9.2H289.1z"/>
	<path class="st0" d="M353.2,139.2c0.8,5,5.3,6.9,10.3,6.9c4.9,0,7.6-2.1,7.6-4.6c0-2-1.5-3.5-5.8-4.3l-11.9-2.3
		c-10.8-2-17-7.8-17-17c0-12,10.3-19.8,25.1-19.8c14.5,0,24.2,6.6,26.5,16.7l-17,3.4c-0.6-3.6-4.1-6.9-9.8-6.9c-5,0-6.6,2.4-6.6,4.5
		c0,1.6,0.7,3.3,4.4,4.1l13.7,2.8c11,2.3,16.2,8.9,16.2,17.6c0,12.9-11.2,19.6-26.5,19.6c-10.9,0-20.6-3.2-25.1-10.5
		c-1.1-1.9-2-4-2.4-6.5L353.2,139.2z"/>
	<path class="st0" d="M494.5,98.3c-17.7,0-32.3,12.3-32.3,30.7c0,18.5,14.6,30.8,32.3,30.8c17.3,0,32-12.3,32-30.8
		C526.4,110.6,511.8,98.3,494.5,98.3z M494.5,144.1c-7.6,0-14.4-5.9-14.4-15.1c0-9.1,6.9-15.1,14.4-15.1c7.2,0,14.1,6,14.1,15.1
		C508.5,138.2,501.7,144.1,494.5,144.1z"/>
	<path class="st0" d="M573.3,99.5l-0.8,18.6h-3.4c-13,0-20.1,6.7-20.1,21.9v18.2h-18.6V99.8H549V111c4.2-7,10.6-12,20.1-12
		C570.7,99,571.9,99.1,573.3,99.5"/>
	<path class="st0" d="M601.2,98.1c-11,0-19.7,4.4-24.1,11.8l15.5,8.2c1.4-3.6,4.4-5.3,9.2-5.3c4.9,0,8.3,3.3,8.3,8.1v1.2h-14.9
		c-15.6,0-24.3,7.4-24.3,18.8c0,11.5,8.7,19.1,21.7,19.1c7.8,0,13.4-2.6,17.4-6v4.3h17.9v-37C627.9,106.3,617.6,98.1,601.2,98.1z
		 M610,135.2c0,6.5-5.8,10.8-12.2,10.8c-4.9,0-8.1-2.3-8.1-6c0-3.6,2.9-6,7.6-6H610V135.2z"/>
</g>
</svg>
